<?xml version="1.0" encoding="utf-8" ?>
<svg xmlns="http://www.w3.org/2000/svg" xmlns:ev="http://www.w3.org/2001/xml-events" xmlns:xlink="http://www.w3.org/1999/xlink" baseProfile="tiny" height="540" version="1.2" width="1620">
<defs/>
<path d="
M1583.01,200.12 C1569.99,189.18, 1538.95,219.32, 1530.53,229.69, 1528.81,227.35, 1530.48,226.24, 1527.25,225.54, 1525.73,227.78, 1524.18,234.96, 1522.04,236.39, 1513.06,242.36, 1464.32,324.7, 1437.05,311.61, 1406.33,296.87, 1486.33,226.18, 1488.48,205.34, 1488.77,202.53, 1488.66,199.43, 1487.77,196.78, 1458.09,193.72, 1426.96,294.18, 1367.22,312.55, 1363.04,313.84, 1354.69,315.79, 1350.7,313.17, 1338.75,305.31, 1366.73,287.59, 1368.44,283.87, 1372.7,274.61, 1380.85,266.22, 1388.18,259.25, 1393.87,253.83, 1418.03,204.11, 1401.85,195.31, 1387.81,187.67, 1341.81,238.04, 1336.01,231.42, 1335.73,230.57, 1355.87,199.16, 1358.54,196.97, 1361.35,194.67, 1365.79,193.94, 1369.04,192.4, 1386.43,184.12, 1424.48,152.02, 1438.76,137.74, 1442.92,133.58, 1445.44,127.4, 1449.86,123.71, 1468.0,108.6, 1523.99,39.79, 1506.6,16.58, 1503.72,16.47, 1497.53,15.38, 1494.89,16.66, 1476.11,25.8, 1422.23,82.11, 1413.43,101.01, 1411.93,104.23, 1407.08,105.77, 1405.58,108.99, 1402.64,115.25, 1368.26,161.82, 1362.28,169.15, 1356.41,176.32, 1349.96,183.25, 1343.98,191.21, 1342.01,191.86, 1341.13,191.52, 1339.24,192.82, 1327.02,219.57, 1257.29,309.5, 1227.68,309.5, 1224.84,309.5, 1212.83,310.72, 1211.54,307.55, 1211.48,305.53, 1210.19,302.27, 1210.54,300.44, 1213.3,285.95, 1249.87,257.06, 1259.22,242.24, 1265.9,231.67, 1275.97,207.43, 1269.52,195.77, 1254.46,188.8, 1214.4,232.7, 1208.7,226.06, 1220.92,208.3, 1234.54,191.98, 1245.76,173.78, 1248.26,169.73, 1254.49,167.31, 1256.44,162.97, 1264.32,145.42, 1295.38,115.42, 1294.35,96.79, 1288.24,96.11, 1281.83,98.43, 1276.72,101.81, 1274.85,103.05, 1207.56,192.83, 1205.58,196.98, 1200.96,206.71, 1183.55,232.32, 1173.93,235.02, 1165.71,249.94, 1153.77,262.67, 1139.92,272.66, 1128.62,280.8, 1079.64,337.72, 1065.73,313.19, 1049.8,285.08, 1132.83,222.28, 1134.71,200.69, 1115.07,190.64, 1106.9,214.55, 1093.07,222.68, 1090.46,217.55, 1093.36,215.58, 1090.72,210.22, 1086.71,202.1, 1058.99,202.64, 1052.69,206.84, 1012.71,233.52, 989.24,277.23, 950.59,306.93, 925.27,326.38, 909.42,307.7, 913.74,299.8, 926.72,276.07, 962.18,256.46, 968.45,232.69, 972.24,218.34, 963.7,200.83, 965.55,195.18, 970.5,180.12, 998.45,157.16, 990.64,137.55, 989.18,137.52, 986.23,136.63, 984.98,136.67, 974.23,136.95, 957.35,164.1, 953.58,172.98, 950.72,179.74, 956.64,195.82, 954.11,199.36, 926.48,238.03, 892.4,279.53, 850.76,305.77, 846.2,308.65, 842.84,313.69, 838.14,316.31, 829.77,320.98, 790.13,345.61, 784.13,346.23, 782.85,346.36, 784.42,343.33, 784.58,342.99, 787.09,337.64, 793.38,333.37, 795.44,327.92, 802.5,309.25, 853.63,236.93, 870.81,226.73, 880.18,221.17, 897.64,210.99, 904.7,203.7, 888.52,207.51, 870.02,219.48, 858.17,231.33, 855.56,233.94, 839.77,248.48, 839.58,246.11, 843.71,240.24, 843.58,218.09, 841.34,211.15, 841.31,211.03, 837.47,208.39, 836.77,207.24, 822.07,182.8, 774.53,236.29, 763.19,243.84, 762.25,247.04, 736.08,280.4, 732.12,284.38, 676.14,340.52, 620.88,333.37, 686.4,266.11, 695.36,256.91, 735.3,210.39, 735.57,200.97, 728.82,199.47, 722.7,199.97, 716.14,202.55, 707.88,205.79, 667.72,262.64, 661.76,272.78, 660.23,275.37, 657.85,282.29, 655.09,284.34, 644.98,291.81, 601.38,329.57, 592.42,309.99, 588.24,300.86, 587.7,299.16, 592.35,290.1, 594.99,284.95, 597.27,279.39, 599.56,274.06, 603.2,265.59, 624.83,242.88, 631.19,233.28, 654.29,198.4, 679.72,189.01, 713.34,165.14, 727.21,155.28, 758.37,117.75, 770.03,103.46, 773.48,99.23, 774.98,93.54, 779.18,89.32, 789.31,79.15, 821.49,7.72, 776.96,29.61, 770.78,32.64, 658.41,171.75, 651.43,183.98, 649.94,186.58, 644.41,189.88, 642.07,192.44, 637.24,197.73, 634.14,204.36, 628.82,209.68, 598.87,239.63, 583.12,280.3, 546.71,304.82, 531.07,315.36, 516.9,331.5, 499.72,314.22, 496.78,311.26, 495.85,302.67, 497.66,298.9, 506.96,279.52, 520.13,263.57, 533.09,246.39, 540.89,236.05, 543.29,222.08, 552.8,212.78, 558.21,207.49, 567.32,205.34, 574.02,202.42, 582.61,198.66, 596.68,186.81, 605.27,181.2, 637.82,159.91, 695.5,82.07, 695.5,43.84, 695.5,38.72, 696.61,27.41, 691.1,24.66, 687.29,22.75, 681.43,24.91, 677.96,26.6, 669.9,30.52, 609.68,105.26, 603.7,115.85, 591.31,137.76, 477.97,290.29, 464.17,298.28, 455.77,303.15, 447.53,308.35, 439.22,313.24, 431.5,317.79, 411.5,323.92, 411.5,309.04, 411.5,268.84, 471.68,239.17, 482.25,208.37, 451.74,199.25, 438.18,240.53, 423.78,248.41, 421.94,248.23, 422.67,243.62, 423.38,242.07, 431.44,224.36, 416.93,198.01, 399.09,204.56, 364.79,217.16, 339.41,246.06, 323.38,278.06, 317.57,289.66, 275.6,313.1, 263.02,318.42, 254.42,322.05, 244.08,320.14, 235.54,318.54, 188.15,309.62, 220.63,223.01, 238.68,199.9, 240.16,198.0, 253.89,193.74, 256.94,192.44, 278.98,183.09, 296.99,167.2, 318.08,156.37, 326.21,152.19, 330.06,143.01, 337.7,137.83, 354.53,126.42, 430.96,48.0, 394.95,35.57, 392.72,34.8, 387.82,38.04, 385.53,38.46, 346.41,45.68, 313.19,74.75, 284.45,101.06, 281.17,104.06, 279.43,109.32, 276.17,112.26, 257.94,128.65, 245.49,146.99, 230.9,166.62, 225.03,174.51, 222.01,183.85, 215.94,191.57, 212.2,196.34, 213.33,201.95, 207.12,205.33, 195.81,211.47, 124.41,220.66, 112.3,217.45, 104.4,215.36, 88.1,215.1, 81.96,212.4, 62.78,203.96, 37.41,196.52, 27.37,176.93, 23.48,169.34, 21.14,162.34, 18.84,154.22, 15.27,141.62, 45.75,82.14, 55.82,72.76, 77.67,52.39, 107.77,41.2, 136.44,35.54, 144.37,33.97, 151.91,35.5, 159.79,35.5, 191.16,35.5, 209.93,43.29, 237.09,56.65, 244.47,60.28, 263.91,73.73, 267.41,80.97, 268.41,83.05, 270.25,87.51, 272.45,88.49, 278.56,85.51, 269.49,74.56, 265.98,70.49, 254.79,57.51, 224.75,42.83, 209.07,35.63, 201.64,32.21, 192.59,31.66, 184.99,28.57, 178.8,26.05, 134.38,25.59, 127.29,27.55, 99.81,35.13, 75.3,47.78, 50.79,62.75, 31.4,74.59, 5.78,128.1, 7.57,149.58, 8.34,158.86, 14.4,168.99, 19.21,176.75, 21.75,180.84, 22.79,185.59, 25.98,189.47, 34.23,199.52, 62.77,212.54, 75.2,216.45, 113.13,228.37, 152.13,222.48, 190.47,216.47, 194.85,215.78, 199.13,213.1, 203.56,212.53, 208.67,211.87, 200.55,231.28, 200.5,233.23, 200.04,252.54, 194.15,271.81, 201.57,289.99, 203.88,295.66, 207.66,300.56, 209.33,306.83, 215.98,311.06, 220.14,319.09, 227.84,323.29, 263.03,342.46, 306.57,295.33, 314.62,294.53, 319.78,294.01, 319.37,315.5, 321.65,320.1, 336.35,349.73, 378.41,310.09, 390.76,297.74, 392.71,295.79, 396.29,289.68, 398.89,289.51, 405.33,289.87, 396.98,323.56, 419.82,324.49, 446.95,325.59, 482.34,286.5, 484.03,286.5, 485.73,286.51, 487.46,288.55, 487.5,290.18, 487.88,304.97, 495.24,328.07, 513.42,329.43, 533.17,330.91, 577.49,281.31, 581.07,281.64, 584.22,287.05, 578.93,292.15, 580.56,296.86, 584.11,307.13, 589.23,323.5, 603.44,321.47, 617.61,319.45, 645.53,298.71, 647.41,299.99, 656.86,360.41, 713.87,308.19, 736.07,286.53, 734.18,292.37, 734.71,296.55, 732.86,302.1, 739.07,315.94, 745.02,335.5, 763.94,326.62, 767.65,324.88, 771.7,324.74, 774.95,321.55, 796.77,300.16, 771.55,340.8, 767.66,344.84, 763.71,348.94, 762.91,356.43, 759.21,360.22, 751.49,368.1, 722.9,377.68, 711.75,384.78, 681.85,403.85, 588.55,457.3, 604.49,501.44, 613.19,525.51, 680.12,483.51, 691.38,475.1, 717.17,455.84, 757.65,390.34, 773.7,361.85, 776.12,357.55, 787.53,349.42, 792.11,347.55, 837.12,329.22, 920.6,262.08, 945.73,219.81, 948.74,214.76, 954.42,211.2, 956.82,205.76, 961.84,204.21, 964.76,218.72, 963.44,221.97, 962.08,225.3, 892.65,272.65, 909.38,306.94, 911.3,310.87, 915.55,319.02, 920.23,320.45, 950.74,329.78, 981.93,280.4, 986.37,280.56, 987.38,280.85, 984.92,287.8, 984.54,289.35, 983.99,291.63, 988.42,311.08, 989.77,313.23, 1007.53,341.62, 1046.87,289.85, 1054.11,287.57, 1055.89,287.01, 1055.32,289.53, 1055.9,290.38, 1059.87,296.19, 1054.24,310.23, 1060.98,318.47, 1069.89,329.36, 1086.97,326.24, 1096.16,317.34, 1102.36,311.34, 1111.05,307.45, 1117.5,301.99, 1119.37,300.4, 1124.87,294.03, 1127.23,294.8, 1129.05,300.38, 1119.62,305.41, 1117.56,310.03, 1114.38,317.19, 1051.1,393.21, 1039.3,414.15, 1035.11,421.6, 1025.47,426.01, 1022.93,434.23, 1019.71,436.17, 1017.37,437.19, 1015.84,440.91, 1021.86,443.62, 1034.03,442.13, 1039.09,438.33, 1045.37,433.63, 1065.24,403.98, 1071.96,395.56, 1075.08,391.64, 1081.63,387.17, 1083.42,383.01, 1089.96,367.85, 1151.26,291.77, 1164.75,286.01, 1174.69,263.09, 1229.54,221.01, 1250.71,206.82, 1254.06,204.58, 1262.01,202.19, 1263.79,200.84, 1264.93,201.25, 1265.84,207.26, 1265.45,208.7, 1256.57,242.05, 1222.25,246.99, 1203.57,288.53, 1208.92,298.44, 1196.97,309.58, 1217.64,314.54, 1222.0,315.59, 1229.54,316.86, 1233.82,315.45, 1238.23,313.99, 1253.32,305.98, 1256.59,302.9, 1257.83,301.74, 1262.23,295.48, 1262.49,298.91, 1262.56,306.17, 1254.21,312.29, 1251.87,319.09, 1268.68,325.75, 1279.54,308.22, 1286.99,294.93, 1289.02,296.48, 1290.45,297.99, 1292.73,299.2, 1296.29,291.52, 1317.49,262.27, 1323.24,256.26, 1332.78,246.31, 1392.93,193.49, 1401.72,202.23, 1411.42,211.88, 1369.51,247.49, 1362.97,255.54, 1353.71,266.94, 1322.84,312.33, 1351.33,319.46, 1379.87,326.59, 1410.28,287.04, 1416.69,284.47, 1418.12,283.9, 1421.61,276.46, 1423.64,278.2, 1426.97,281.42, 1412.26,318.5, 1443.44,318.5, 1447.32,318.5, 1450.49,317.79, 1453.74,315.79, 1455.04,314.99, 1458.19,312.93, 1458.49,314.96, 1458.57,321.04, 1441.01,341.73, 1436.37,345.1, 1432.08,348.23, 1401.34,359.65, 1393.81,363.73, 1341.35,392.15, 1287.76,434.23, 1258.28,487.17, 1231.01,536.17, 1282.16,528.99, 1309.17,513.28, 1331.35,500.38, 1351.48,482.53, 1369.61,463.88, 1375.13,458.21, 1379.96,445.64, 1388.08,442.56, 1393.32,440.57, 1400.22,442.28, 1406.41,441.47, 1458.35,434.72, 1514.3,412.73, 1529.83,357.74, 1537.71,329.83, 1486.0,333.72, 1471.69,337.45, 1470.35,337.8, 1461.44,339.63, 1461.57,337.42, 1461.86,332.67, 1548.61,219.29, 1556.86,214.69, 1561.26,212.24, 1564.53,208.84, 1568.65,205.87, 1573.45,202.43, 1578.82,203.25, 1583.01,200.12Z
M1368.01,187.42 C1362.63,186.59, 1373.03,175.63, 1375.86,172.63, 1381.71,166.46, 1399.46,140.78, 1402.55,133.12, 1406.21,124.05, 1468.93,49.01, 1479.91,34.61, 1483.96,29.31, 1492.63,23.42, 1498.67,20.92, 1500.23,20.28, 1501.97,21.65, 1503.64,21.87, 1516.41,46.71, 1432.56,142.55, 1411.31,157.16, 1397.36,166.75, 1380.39,175.94, 1368.01,187.42Z
M563.08,200.59 C570.84,184.38, 585.43,171.93, 593.34,156.1, 604.21,134.36, 667.24,32.78, 687.96,29.23, 703.22,58.52, 642.04,145.74, 618.09,163.34, 599.6,176.92, 583.49,190.34, 563.08,200.59Z
M661.77,193.57 C702.83,144.15, 735.59,89.53, 774.93,38.59, 778.41,34.08, 784.49,29.58, 790.18,29.46, 803.13,38.2, 784.84,65.93, 781.45,76.78, 777.81,88.4, 720.8,155.74, 709.14,162.31, 692.63,171.6, 678.41,184.07, 661.77,193.57Z
M243.06,190.52 C262.39,152.62, 341.77,64.48, 378.82,44.72, 382.93,42.53, 391.92,42.01, 396.52,42.76, 415.13,78.34, 278.18,190.1, 243.06,190.52Z
M751.5,175.0 C751.5,174.79, 758.88,170.3, 758.31,162.95, 757.69,154.99, 743.28,157.57, 738.99,159.57, 729.55,163.98, 737.6,175.5, 748.19,175.5, 748.59,175.5, 751.5,175.74, 751.5,175.0Z
M752.0,321.49 C748.2,317.71, 743.35,314.37, 744.54,308.44, 748.56,288.27, 805.38,214.27, 825.04,206.56, 826.61,205.95, 830.58,206.5, 832.01,206.5, 833.35,211.11, 834.77,216.0, 836.83,220.37, 835.72,226.18, 830.49,238.36, 835.52,242.32, 833.13,247.69, 831.63,253.47, 829.45,258.88, 821.77,277.93, 783.1,313.96, 764.0,321.43, 761.03,322.59, 755.15,321.5, 752.0,321.49Z
M999.71,314.2 C997.97,311.58, 995.43,308.76, 994.55,305.75, 989.39,288.02, 1031.81,252.8, 1042.08,239.4, 1062.05,213.37, 1056.31,207.1, 1084.43,211.76, 1085.29,214.15, 1085.5,214.88, 1085.5,217.1, 1085.5,217.9, 1085.24,217.85, 1085.5,217.9, 1085.5,225.18, 1082.87,230.0, 1082.32,236.78, 1080.52,238.05, 1078.54,239.19, 1076.5,240.02, 1076.5,260.97, 1024.2,317.02, 999.71,314.2Z
M411.04,211.82 C412.69,213.24, 415.91,215.29, 417.25,216.83, 425.47,226.25, 410.92,263.56, 405.43,272.99, 398.06,285.64, 338.47,347.16, 326.95,315.58, 322.44,303.22, 372.35,239.48, 384.78,231.76, 393.22,226.51, 403.33,218.21, 411.04,211.82Z
M1391.64,436.42 C1392.79,432.62, 1447.23,355.68, 1453.69,347.29, 1463.22,343.03, 1472.07,342.93, 1482.43,341.47, 1565.11,329.82, 1505.63,396.44, 1493.02,402.42, 1481.62,407.82, 1471.66,414.86, 1459.86,419.45, 1440.13,427.13, 1413.07,436.97, 1391.64,436.42Z
M1430.98,352.85 C1422.32,364.41, 1407.19,391.69, 1395.96,398.61, 1394.78,399.34, 1395.87,402.07, 1395.27,403.19, 1389.25,414.38, 1381.17,423.12, 1373.09,433.29, 1349.37,435.33, 1348.64,424.8, 1345.38,423.62, 1322.61,429.71, 1361.71,440.43, 1366.56,442.5, 1353.47,466.65, 1328.35,491.26, 1304.73,506.81, 1297.55,511.53, 1256.86,531.81, 1256.5,511.63, 1256.42,507.05, 1259.6,488.84, 1263.91,485.66, 1265.83,484.25, 1267.85,482.5, 1269.22,480.24, 1289.51,446.95, 1347.68,387.93, 1384.14,373.55, 1395.7,368.98, 1420.32,358.47, 1430.98,352.85Z
M751.94,372.06 C727.83,405.93, 698.03,463.64, 661.87,483.68, 656.41,486.71, 653.81,492.26, 647.64,494.48, 641.59,496.66, 635.74,501.21, 629.57,502.46, 599.74,508.52, 608.52,485.62, 615.57,468.02, 625.92,442.15, 724.35,376.17, 751.94,372.06Z
"/></svg>