<?xml version="1.0" encoding="utf-8" standalone="no"?>
<!DOCTYPE svg PUBLIC "-//W3C//DTD SVG 1.1//EN"
  "http://www.w3.org/Graphics/SVG/1.1/DTD/svg11.dtd">
<svg height="451.558125pt" version="1.1" viewBox="0 0 1426.282813 451.558125" width="1426.282813pt" xmlns="http://www.w3.org/2000/svg" xmlns:xlink="http://www.w3.org/1999/xlink">
 <metadata>
  <rdf:RDF xmlns:cc="http://creativecommons.org/ns#" xmlns:dc="http://purl.org/dc/elements/1.1/" xmlns:rdf="http://www.w3.org/1999/02/22-rdf-syntax-ns#">
   <cc:Work>
    <dc:type rdf:resource="http://purl.org/dc/dcmitype/StillImage"/>
    <dc:date>2022-02-13T22:32:52.892920</dc:date>
    <dc:format>image/svg+xml</dc:format>
    <dc:creator>
     <cc:Agent>
      <dc:title>Matplotlib v3.4.3, https://matplotlib.org/</dc:title>
     </cc:Agent>
    </dc:creator>
   </cc:Work>
  </rdf:RDF>
 </metadata>
 <defs>
  <style type="text/css">*{stroke-linecap:butt;stroke-linejoin:round;}</style>
 </defs>
 <g id="figure_1">
  <g id="patch_1">
   <path d="M 0 451.558125 
L 1426.282813 451.558125 
L 1426.282813 0 
L 0 0 
z
" style="fill:none;"/>
  </g>
  <g id="axes_1">
   <g id="patch_2">
    <path d="M 31.282813 434.88 
L 1426.282813 434.88 
L 1426.282813 -0 
L 31.282813 -0 
z
" style="fill:#ffffff;"/>
   </g>
   <g id="matplotlib.axis_1">
    <g id="xtick_1">
     <g id="line2d_1">
      <defs>
       <path d="M 0 0 
L 0 3.5 
" id="m208d239c5b" style="stroke:#000000;stroke-width:0.8;"/>
      </defs>
      <g>
       <use style="stroke:#000000;stroke-width:0.8;" x="94.691903" xlink:href="#m208d239c5b" y="434.88"/>
      </g>
     </g>
     <g id="text_1">
      <!-- 0 -->
      <g transform="translate(91.510653 449.478437)scale(0.1 -0.1)">
       <defs>
        <path d="M 2034 4250 
Q 1547 4250 1301 3770 
Q 1056 3291 1056 2328 
Q 1056 1369 1301 889 
Q 1547 409 2034 409 
Q 2525 409 2770 889 
Q 3016 1369 3016 2328 
Q 3016 3291 2770 3770 
Q 2525 4250 2034 4250 
z
M 2034 4750 
Q 2819 4750 3233 4129 
Q 3647 3509 3647 2328 
Q 3647 1150 3233 529 
Q 2819 -91 2034 -91 
Q 1250 -91 836 529 
Q 422 1150 422 2328 
Q 422 3509 836 4129 
Q 1250 4750 2034 4750 
z
" id="DejaVuSans-30" transform="scale(0.015625)"/>
       </defs>
       <use xlink:href="#DejaVuSans-30"/>
      </g>
     </g>
    </g>
    <g id="xtick_2">
     <g id="line2d_2">
      <g>
       <use style="stroke:#000000;stroke-width:0.8;" x="266.76542" xlink:href="#m208d239c5b" y="434.88"/>
      </g>
     </g>
     <g id="text_2">
      <!-- 100 -->
      <g transform="translate(257.22167 449.478437)scale(0.1 -0.1)">
       <defs>
        <path d="M 794 531 
L 1825 531 
L 1825 4091 
L 703 3866 
L 703 4441 
L 1819 4666 
L 2450 4666 
L 2450 531 
L 3481 531 
L 3481 0 
L 794 0 
L 794 531 
z
" id="DejaVuSans-31" transform="scale(0.015625)"/>
       </defs>
       <use xlink:href="#DejaVuSans-31"/>
       <use x="63.623047" xlink:href="#DejaVuSans-30"/>
       <use x="127.246094" xlink:href="#DejaVuSans-30"/>
      </g>
     </g>
    </g>
    <g id="xtick_3">
     <g id="line2d_3">
      <g>
       <use style="stroke:#000000;stroke-width:0.8;" x="438.838937" xlink:href="#m208d239c5b" y="434.88"/>
      </g>
     </g>
     <g id="text_3">
      <!-- 200 -->
      <g transform="translate(429.295187 449.478437)scale(0.1 -0.1)">
       <defs>
        <path d="M 1228 531 
L 3431 531 
L 3431 0 
L 469 0 
L 469 531 
Q 828 903 1448 1529 
Q 2069 2156 2228 2338 
Q 2531 2678 2651 2914 
Q 2772 3150 2772 3378 
Q 2772 3750 2511 3984 
Q 2250 4219 1831 4219 
Q 1534 4219 1204 4116 
Q 875 4013 500 3803 
L 500 4441 
Q 881 4594 1212 4672 
Q 1544 4750 1819 4750 
Q 2544 4750 2975 4387 
Q 3406 4025 3406 3419 
Q 3406 3131 3298 2873 
Q 3191 2616 2906 2266 
Q 2828 2175 2409 1742 
Q 1991 1309 1228 531 
z
" id="DejaVuSans-32" transform="scale(0.015625)"/>
       </defs>
       <use xlink:href="#DejaVuSans-32"/>
       <use x="63.623047" xlink:href="#DejaVuSans-30"/>
       <use x="127.246094" xlink:href="#DejaVuSans-30"/>
      </g>
     </g>
    </g>
    <g id="xtick_4">
     <g id="line2d_4">
      <g>
       <use style="stroke:#000000;stroke-width:0.8;" x="610.912454" xlink:href="#m208d239c5b" y="434.88"/>
      </g>
     </g>
     <g id="text_4">
      <!-- 300 -->
      <g transform="translate(601.368704 449.478437)scale(0.1 -0.1)">
       <defs>
        <path d="M 2597 2516 
Q 3050 2419 3304 2112 
Q 3559 1806 3559 1356 
Q 3559 666 3084 287 
Q 2609 -91 1734 -91 
Q 1441 -91 1130 -33 
Q 819 25 488 141 
L 488 750 
Q 750 597 1062 519 
Q 1375 441 1716 441 
Q 2309 441 2620 675 
Q 2931 909 2931 1356 
Q 2931 1769 2642 2001 
Q 2353 2234 1838 2234 
L 1294 2234 
L 1294 2753 
L 1863 2753 
Q 2328 2753 2575 2939 
Q 2822 3125 2822 3475 
Q 2822 3834 2567 4026 
Q 2313 4219 1838 4219 
Q 1578 4219 1281 4162 
Q 984 4106 628 3988 
L 628 4550 
Q 988 4650 1302 4700 
Q 1616 4750 1894 4750 
Q 2613 4750 3031 4423 
Q 3450 4097 3450 3541 
Q 3450 3153 3228 2886 
Q 3006 2619 2597 2516 
z
" id="DejaVuSans-33" transform="scale(0.015625)"/>
       </defs>
       <use xlink:href="#DejaVuSans-33"/>
       <use x="63.623047" xlink:href="#DejaVuSans-30"/>
       <use x="127.246094" xlink:href="#DejaVuSans-30"/>
      </g>
     </g>
    </g>
    <g id="xtick_5">
     <g id="line2d_5">
      <g>
       <use style="stroke:#000000;stroke-width:0.8;" x="782.98597" xlink:href="#m208d239c5b" y="434.88"/>
      </g>
     </g>
     <g id="text_5">
      <!-- 400 -->
      <g transform="translate(773.44222 449.478437)scale(0.1 -0.1)">
       <defs>
        <path d="M 2419 4116 
L 825 1625 
L 2419 1625 
L 2419 4116 
z
M 2253 4666 
L 3047 4666 
L 3047 1625 
L 3713 1625 
L 3713 1100 
L 3047 1100 
L 3047 0 
L 2419 0 
L 2419 1100 
L 313 1100 
L 313 1709 
L 2253 4666 
z
" id="DejaVuSans-34" transform="scale(0.015625)"/>
       </defs>
       <use xlink:href="#DejaVuSans-34"/>
       <use x="63.623047" xlink:href="#DejaVuSans-30"/>
       <use x="127.246094" xlink:href="#DejaVuSans-30"/>
      </g>
     </g>
    </g>
    <g id="xtick_6">
     <g id="line2d_6">
      <g>
       <use style="stroke:#000000;stroke-width:0.8;" x="955.059487" xlink:href="#m208d239c5b" y="434.88"/>
      </g>
     </g>
     <g id="text_6">
      <!-- 500 -->
      <g transform="translate(945.515737 449.478437)scale(0.1 -0.1)">
       <defs>
        <path d="M 691 4666 
L 3169 4666 
L 3169 4134 
L 1269 4134 
L 1269 2991 
Q 1406 3038 1543 3061 
Q 1681 3084 1819 3084 
Q 2600 3084 3056 2656 
Q 3513 2228 3513 1497 
Q 3513 744 3044 326 
Q 2575 -91 1722 -91 
Q 1428 -91 1123 -41 
Q 819 9 494 109 
L 494 744 
Q 775 591 1075 516 
Q 1375 441 1709 441 
Q 2250 441 2565 725 
Q 2881 1009 2881 1497 
Q 2881 1984 2565 2268 
Q 2250 2553 1709 2553 
Q 1456 2553 1204 2497 
Q 953 2441 691 2322 
L 691 4666 
z
" id="DejaVuSans-35" transform="scale(0.015625)"/>
       </defs>
       <use xlink:href="#DejaVuSans-35"/>
       <use x="63.623047" xlink:href="#DejaVuSans-30"/>
       <use x="127.246094" xlink:href="#DejaVuSans-30"/>
      </g>
     </g>
    </g>
    <g id="xtick_7">
     <g id="line2d_7">
      <g>
       <use style="stroke:#000000;stroke-width:0.8;" x="1127.133004" xlink:href="#m208d239c5b" y="434.88"/>
      </g>
     </g>
     <g id="text_7">
      <!-- 600 -->
      <g transform="translate(1117.589254 449.478437)scale(0.1 -0.1)">
       <defs>
        <path d="M 2113 2584 
Q 1688 2584 1439 2293 
Q 1191 2003 1191 1497 
Q 1191 994 1439 701 
Q 1688 409 2113 409 
Q 2538 409 2786 701 
Q 3034 994 3034 1497 
Q 3034 2003 2786 2293 
Q 2538 2584 2113 2584 
z
M 3366 4563 
L 3366 3988 
Q 3128 4100 2886 4159 
Q 2644 4219 2406 4219 
Q 1781 4219 1451 3797 
Q 1122 3375 1075 2522 
Q 1259 2794 1537 2939 
Q 1816 3084 2150 3084 
Q 2853 3084 3261 2657 
Q 3669 2231 3669 1497 
Q 3669 778 3244 343 
Q 2819 -91 2113 -91 
Q 1303 -91 875 529 
Q 447 1150 447 2328 
Q 447 3434 972 4092 
Q 1497 4750 2381 4750 
Q 2619 4750 2861 4703 
Q 3103 4656 3366 4563 
z
" id="DejaVuSans-36" transform="scale(0.015625)"/>
       </defs>
       <use xlink:href="#DejaVuSans-36"/>
       <use x="63.623047" xlink:href="#DejaVuSans-30"/>
       <use x="127.246094" xlink:href="#DejaVuSans-30"/>
      </g>
     </g>
    </g>
    <g id="xtick_8">
     <g id="line2d_8">
      <g>
       <use style="stroke:#000000;stroke-width:0.8;" x="1299.20652" xlink:href="#m208d239c5b" y="434.88"/>
      </g>
     </g>
     <g id="text_8">
      <!-- 700 -->
      <g transform="translate(1289.66277 449.478437)scale(0.1 -0.1)">
       <defs>
        <path d="M 525 4666 
L 3525 4666 
L 3525 4397 
L 1831 0 
L 1172 0 
L 2766 4134 
L 525 4134 
L 525 4666 
z
" id="DejaVuSans-37" transform="scale(0.015625)"/>
       </defs>
       <use xlink:href="#DejaVuSans-37"/>
       <use x="63.623047" xlink:href="#DejaVuSans-30"/>
       <use x="127.246094" xlink:href="#DejaVuSans-30"/>
      </g>
     </g>
    </g>
   </g>
   <g id="matplotlib.axis_2">
    <g id="ytick_1">
     <g id="line2d_9">
      <defs>
       <path d="M 0 0 
L -3.5 0 
" id="mae091a1296" style="stroke:#000000;stroke-width:0.8;"/>
      </defs>
      <g>
       <use style="stroke:#000000;stroke-width:0.8;" x="31.282813" xlink:href="#mae091a1296" y="377.311786"/>
      </g>
     </g>
     <g id="text_9">
      <!-- −0.2 -->
      <g transform="translate(0 381.111004)scale(0.1 -0.1)">
       <defs>
        <path d="M 678 2272 
L 4684 2272 
L 4684 1741 
L 678 1741 
L 678 2272 
z
" id="DejaVuSans-2212" transform="scale(0.015625)"/>
        <path d="M 684 794 
L 1344 794 
L 1344 0 
L 684 0 
L 684 794 
z
" id="DejaVuSans-2e" transform="scale(0.015625)"/>
       </defs>
       <use xlink:href="#DejaVuSans-2212"/>
       <use x="83.789062" xlink:href="#DejaVuSans-30"/>
       <use x="147.412109" xlink:href="#DejaVuSans-2e"/>
       <use x="179.199219" xlink:href="#DejaVuSans-32"/>
      </g>
     </g>
    </g>
    <g id="ytick_2">
     <g id="line2d_10">
      <g>
       <use style="stroke:#000000;stroke-width:0.8;" x="31.282813" xlink:href="#mae091a1296" y="309.595709"/>
      </g>
     </g>
     <g id="text_10">
      <!-- −0.1 -->
      <g transform="translate(0 313.394928)scale(0.1 -0.1)">
       <use xlink:href="#DejaVuSans-2212"/>
       <use x="83.789062" xlink:href="#DejaVuSans-30"/>
       <use x="147.412109" xlink:href="#DejaVuSans-2e"/>
       <use x="179.199219" xlink:href="#DejaVuSans-31"/>
      </g>
     </g>
    </g>
    <g id="ytick_3">
     <g id="line2d_11">
      <g>
       <use style="stroke:#000000;stroke-width:0.8;" x="31.282813" xlink:href="#mae091a1296" y="241.879633"/>
      </g>
     </g>
     <g id="text_11">
      <!-- 0.0 -->
      <g transform="translate(8.379688 245.678852)scale(0.1 -0.1)">
       <use xlink:href="#DejaVuSans-30"/>
       <use x="63.623047" xlink:href="#DejaVuSans-2e"/>
       <use x="95.410156" xlink:href="#DejaVuSans-30"/>
      </g>
     </g>
    </g>
    <g id="ytick_4">
     <g id="line2d_12">
      <g>
       <use style="stroke:#000000;stroke-width:0.8;" x="31.282813" xlink:href="#mae091a1296" y="174.163557"/>
      </g>
     </g>
     <g id="text_12">
      <!-- 0.1 -->
      <g transform="translate(8.379688 177.962775)scale(0.1 -0.1)">
       <use xlink:href="#DejaVuSans-30"/>
       <use x="63.623047" xlink:href="#DejaVuSans-2e"/>
       <use x="95.410156" xlink:href="#DejaVuSans-31"/>
      </g>
     </g>
    </g>
    <g id="ytick_5">
     <g id="line2d_13">
      <g>
       <use style="stroke:#000000;stroke-width:0.8;" x="31.282813" xlink:href="#mae091a1296" y="106.44748"/>
      </g>
     </g>
     <g id="text_13">
      <!-- 0.2 -->
      <g transform="translate(8.379688 110.246699)scale(0.1 -0.1)">
       <use xlink:href="#DejaVuSans-30"/>
       <use x="63.623047" xlink:href="#DejaVuSans-2e"/>
       <use x="95.410156" xlink:href="#DejaVuSans-32"/>
      </g>
     </g>
    </g>
    <g id="ytick_6">
     <g id="line2d_14">
      <g>
       <use style="stroke:#000000;stroke-width:0.8;" x="31.282813" xlink:href="#mae091a1296" y="38.731404"/>
      </g>
     </g>
     <g id="text_14">
      <!-- 0.3 -->
      <g transform="translate(8.379688 42.530623)scale(0.1 -0.1)">
       <use xlink:href="#DejaVuSans-30"/>
       <use x="63.623047" xlink:href="#DejaVuSans-2e"/>
       <use x="95.410156" xlink:href="#DejaVuSans-33"/>
      </g>
     </g>
    </g>
   </g>
   <g id="line2d_15">
    <path clip-path="url(#pcbd0c20e95)" d="M 94.691903 215.027835 
L 96.412639 242.093935 
L 98.133374 237.41687 
L 99.854109 207.249565 
L 101.574844 191.553807 
L 103.295579 182.057649 
L 105.016314 182.220137 
L 106.73705 190.833236 
L 108.457785 192.233807 
L 110.17852 175.815931 
L 111.899255 177.94056 
L 113.61999 196.151488 
L 115.340725 208.282123 
L 117.061461 213.810319 
L 120.502931 185.170282 
L 122.223666 188.715886 
L 123.944401 191.092651 
L 125.665136 184.806289 
L 129.106607 163.646754 
L 130.827342 158.155993 
L 132.548077 174.893169 
L 134.268812 194.765916 
L 135.989547 189.799183 
L 137.710283 185.434654 
L 139.431018 185.515264 
L 141.151753 194.560218 
L 142.872488 195.781305 
L 144.593223 195.896786 
L 146.313958 186.326278 
L 148.034694 175.29916 
L 149.755429 184.80457 
L 151.476164 198.005854 
L 153.196899 205.887033 
L 154.917634 214.983983 
L 156.638369 236.477885 
L 158.359105 244.559517 
L 160.07984 241.928806 
L 161.800575 238.382649 
L 163.52131 237.7595 
L 165.242045 230.685128 
L 166.96278 231.724072 
L 168.683516 217.766253 
L 170.404251 205.300174 
L 172.124986 211.15929 
L 173.845721 222.28459 
L 175.566456 240.503912 
L 177.287191 245.572251 
L 179.007927 252.558675 
L 180.728662 251.339439 
L 182.449397 254.3345 
L 184.170132 250.271455 
L 185.890867 242.719351 
L 187.611602 249.193059 
L 189.332338 234.437002 
L 191.053073 216.178916 
L 192.773808 202.199924 
L 194.494543 201.719281 
L 196.215278 198.508101 
L 197.936013 207.809977 
L 199.656749 213.363671 
L 201.377484 198.603609 
L 203.098219 201.028063 
L 204.818954 225.211893 
L 206.539689 240.366534 
L 208.260424 248.238167 
L 209.98116 263.759417 
L 211.701895 259.57999 
L 213.42263 255.783293 
L 215.143365 263.728761 
L 216.8641 267.780548 
L 218.584835 266.661313 
L 220.305571 267.522647 
L 222.026306 255.215128 
L 223.747041 236.268665 
L 225.467776 228.009974 
L 227.188511 238.220756 
L 228.909246 241.261361 
L 230.629982 240.45988 
L 232.350717 227.539992 
L 234.071452 216.582369 
L 235.792187 222.552843 
L 239.233657 251.894876 
L 240.954393 235.318737 
L 242.675128 229.34549 
L 244.395863 229.448504 
L 246.116598 235.813464 
L 247.837333 241.357 
L 249.558068 241.234885 
L 251.278804 234.486054 
L 252.999539 230.115762 
L 254.720274 238.992653 
L 256.441009 246.048427 
L 258.161744 253.894294 
L 259.882479 250.888198 
L 261.603215 243.56944 
L 263.32395 242.834618 
L 265.044685 242.498568 
L 266.76542 236.47384 
L 268.486155 241.182186 
L 270.20689 227.161332 
L 271.927626 205.067133 
L 273.648361 216.749824 
L 275.369096 239.615478 
L 277.089831 241.799987 
L 278.810566 244.89817 
L 280.531301 241.884499 
L 282.252037 230.40287 
L 283.972772 247.295511 
L 285.693507 276.487131 
L 287.414242 264.573156 
L 289.134977 242.999075 
L 290.855712 242.171166 
L 292.576448 246.333466 
L 294.297183 260.135299 
L 296.017918 266.454652 
L 297.738653 257.830222 
L 299.459388 234.130481 
L 301.180123 235.158122 
L 302.900859 241.288685 
L 304.621594 241.312804 
L 308.063064 229.035844 
L 309.783799 229.059068 
L 311.504534 230.78142 
L 313.22527 239.775729 
L 314.946005 241.773458 
L 318.387475 241.928169 
L 320.10821 241.086407 
L 321.828945 231.390484 
L 323.549681 229.806432 
L 325.270416 229.689892 
L 330.432621 229.68988 
L 332.153356 229.826552 
L 333.874092 232.358791 
L 335.594827 240.729952 
L 337.315562 241.764311 
L 339.036297 241.506138 
L 340.757032 236.93526 
L 342.477767 230.284282 
L 344.198503 229.798142 
L 345.919238 230.241373 
L 347.639973 236.179848 
L 349.360708 240.901184 
L 351.081443 234.666963 
L 352.802178 229.704097 
L 354.522914 239.263123 
L 356.243649 253.218159 
L 357.964384 254.245643 
L 359.685119 253.302513 
L 361.405854 240.677353 
L 363.126589 231.227192 
L 364.847325 243.509366 
L 366.56806 253.440563 
L 368.288795 242.778315 
L 370.00953 230.885478 
L 371.730265 236.134016 
L 373.451 242.013866 
L 375.171736 248.845443 
L 376.892471 252.742427 
L 378.613206 238.435923 
L 380.333941 230.318661 
L 382.054676 240.996376 
L 383.775411 252.531998 
L 385.496147 240.631517 
L 387.216882 230.200531 
L 388.937617 229.513624 
L 390.658352 230.798383 
L 392.379087 247.057256 
L 394.099822 254.178247 
L 395.820558 247.810957 
L 397.541293 242.858144 
L 399.262028 248.76269 
L 400.982763 253.638341 
L 402.703498 253.961124 
L 404.424233 253.353243 
L 406.144969 245.632421 
L 407.865704 242.135319 
L 409.586439 242.000423 
L 411.307174 244.176195 
L 413.027909 252.511219 
L 414.748644 251.779213 
L 416.46938 243.606511 
L 418.190115 244.271662 
L 419.91085 253.333713 
L 421.631585 253.018521 
L 423.35232 243.672312 
L 425.073055 236.790577 
L 426.793791 218.833028 
L 428.514526 220.615051 
L 430.235261 238.298756 
L 431.955996 236.967309 
L 433.676731 219.235581 
L 435.397467 219.368225 
L 437.118202 228.981747 
L 438.838937 231.718539 
L 440.559672 241.056369 
L 442.280407 240.051375 
L 444.001142 231.037155 
L 445.721878 231.709714 
L 447.442613 240.22953 
L 449.163348 240.610571 
L 450.884083 241.867193 
L 454.325553 241.901213 
L 457.767024 241.879373 
L 459.487759 241.69982 
L 461.208494 238.781245 
L 462.929229 230.107938 
L 464.649964 234.40655 
L 466.3707 241.61492 
L 468.091435 246.455731 
L 469.81217 253.490665 
L 471.532905 249.113882 
L 473.25364 239.1649 
L 474.974375 234.510036 
L 476.695111 252.016711 
L 478.415846 246.478249 
L 480.136581 240.480116 
L 481.857316 231.018108 
L 483.578051 216.880968 
L 485.298786 218.436887 
L 487.019522 233.531761 
L 488.740257 250.339476 
L 490.460992 235.030903 
L 492.181727 229.931753 
L 493.902462 229.89815 
L 495.623197 234.576042 
L 497.343933 240.168563 
L 499.064668 240.850076 
L 500.785403 239.486491 
L 502.506138 231.574705 
L 504.226873 245.389218 
L 505.947608 249.178211 
L 507.668344 242.46231 
L 509.389079 241.65101 
L 511.109814 239.844261 
L 512.830549 244.38129 
L 514.551284 242.058966 
L 516.272019 241.180836 
L 517.992755 233.465975 
L 519.71349 230.567171 
L 521.434225 240.956306 
L 523.15496 242.561143 
L 524.875695 251.39158 
L 526.59643 252.921475 
L 528.317166 243.297028 
L 530.037901 242.103615 
L 531.758636 242.929714 
L 533.479371 253.949334 
L 535.200106 249.505633 
L 536.920841 242.042125 
L 538.641577 235.77104 
L 540.362312 228.342304 
L 542.083047 239.586676 
L 543.803782 241.095904 
L 545.524517 234.077441 
L 547.245252 221.107422 
L 548.965988 226.331877 
L 550.686723 232.839826 
L 552.407458 229.656149 
L 554.128193 237.99169 
L 555.848928 233.636808 
L 557.569663 230.041295 
L 559.290399 242.862413 
L 561.011134 253.826553 
L 562.731869 248.354499 
L 564.452604 246.65656 
L 566.173339 253.999424 
L 567.894074 246.743496 
L 569.61481 246.269615 
L 571.335545 243.667809 
L 573.05628 234.367506 
L 574.777015 228.705903 
L 576.49775 232.06998 
L 578.218485 239.675159 
L 579.939221 229.307099 
L 581.659956 234.020198 
L 585.101426 249.956379 
L 586.822161 255.021013 
L 588.542896 250.143717 
L 590.263632 240.984699 
L 591.984367 237.945003 
L 593.705102 247.86927 
L 595.425837 239.869263 
L 597.146572 237.546695 
L 598.867307 236.881762 
L 600.588043 229.8564 
L 602.308778 238.884369 
L 604.029513 245.980328 
L 605.750248 239.153384 
L 607.470983 241.119235 
L 609.191718 244.624374 
L 610.912454 231.452021 
L 612.633189 225.697176 
L 614.353924 227.026698 
L 616.074659 222.909886 
L 617.795394 225.519474 
L 619.516129 227.025293 
L 621.236865 222.218045 
L 622.9576 227.254834 
L 624.678335 237.558075 
L 626.39907 242.557297 
L 628.119805 254.651711 
L 629.84054 251.688909 
L 631.561276 244.996056 
L 633.282011 255.001109 
L 635.002746 255.884706 
L 636.723481 258.159384 
L 638.444216 261.218055 
L 640.164951 264.606646 
L 641.885687 256.162516 
L 643.606422 255.181749 
L 645.327157 257.5055 
L 647.047892 242.953972 
L 648.768627 241.212846 
L 650.489362 229.859246 
L 653.930833 214.974103 
L 655.651568 214.973446 
L 657.372303 222.190444 
L 659.093038 226.226338 
L 660.813773 240.462645 
L 662.534509 236.473914 
L 664.255244 238.795871 
L 665.975979 242.666193 
L 667.696714 254.613962 
L 669.417449 251.54238 
L 671.138184 244.239756 
L 672.85892 248.704617 
L 674.579655 236.648928 
L 676.30039 233.465365 
L 678.021125 227.951251 
L 679.74186 211.614242 
L 681.462595 135.79907 
L 683.183331 52.111877 
L 684.904066 25.187224 
L 686.624801 19.767273 
L 688.345536 22.892937 
L 690.066271 31.909865 
L 691.787006 24.313765 
L 693.507742 22.034248 
L 695.228477 22.958094 
L 696.949212 63.226336 
L 700.390682 188.640295 
L 702.111417 215.582215 
L 703.832153 220.815795 
L 705.552888 227.780636 
L 707.273623 228.763412 
L 708.994358 229.317569 
L 710.715093 236.507598 
L 712.435828 251.823735 
L 714.156564 237.828085 
L 715.877299 238.757596 
L 717.598034 253.511462 
L 719.318769 254.708396 
L 721.039504 254.874222 
L 722.760239 254.856041 
L 724.480975 253.968249 
L 726.20171 243.597418 
L 727.922445 249.991499 
L 729.64318 243.606997 
L 731.363915 230.109816 
L 733.08465 229.318945 
L 734.805386 233.025485 
L 736.526121 240.117049 
L 738.246856 229.70656 
L 739.967591 228.916715 
L 741.688326 229.291256 
L 743.409061 234.450025 
L 745.129797 241.259504 
L 746.850532 241.246864 
L 748.571267 233.565513 
L 750.292002 219.177406 
L 752.012737 229.333882 
L 753.733472 240.861204 
L 755.454208 241.791917 
L 758.895678 241.891941 
L 760.616413 242.168087 
L 762.337148 246.013813 
L 764.057883 252.912599 
L 765.778619 248.052434 
L 767.499354 241.781536 
L 769.220089 241.923494 
L 772.661559 241.879733 
L 774.382294 241.934865 
L 776.10303 242.48166 
L 777.823765 249.31143 
L 779.5445 253.823362 
L 781.265235 244.140502 
L 782.98597 242.098657 
L 784.706705 243.154008 
L 786.427441 252.118213 
L 788.148176 254.596705 
L 789.868911 253.671457 
L 791.589646 240.406586 
L 793.310381 236.323843 
L 795.031116 252.67882 
L 796.751852 254.442837 
L 798.472587 251.827942 
L 800.193322 228.183169 
L 801.914057 212.95906 
L 803.634792 203.154433 
L 805.355527 212.712918 
L 807.076263 219.958306 
L 808.796998 214.077094 
L 810.517733 225.096701 
L 812.238468 240.414456 
L 813.959203 272.134838 
L 817.400674 315.736604 
L 819.121409 315.866535 
L 820.842144 301.968978 
L 822.562879 295.594411 
L 824.283614 278.388342 
L 826.004349 254.517046 
L 827.725085 244.701524 
L 829.44582 232.99475 
L 831.166555 214.785718 
L 832.88729 214.559096 
L 834.608025 225.705194 
L 836.32876 215.143054 
L 838.049496 212.302803 
L 839.770231 230.349792 
L 841.490966 232.207419 
L 843.211701 230.26094 
L 844.932436 229.04409 
L 846.653171 210.714469 
L 848.373907 210.923598 
L 850.094642 241.580969 
L 851.815377 254.494902 
L 853.536112 235.918341 
L 855.256847 222.72801 
L 856.977582 214.638149 
L 858.698318 226.865539 
L 860.419053 248.184793 
L 862.139788 239.997072 
L 863.860523 219.337519 
L 865.581258 220.965011 
L 867.301993 236.509678 
L 869.022729 247.938822 
L 870.743464 260.792724 
L 872.464199 260.753553 
L 874.184934 255.756922 
L 875.905669 260.830658 
L 877.626404 265.349959 
L 879.34714 252.648142 
L 881.067875 232.163228 
L 882.78861 228.283844 
L 884.509345 215.373899 
L 886.23008 208.460816 
L 887.950815 215.266711 
L 891.392286 216.751077 
L 893.113021 227.330011 
L 894.833756 257.116669 
L 896.554491 267.141253 
L 898.275226 268.243489 
L 899.995962 260.389301 
L 901.716697 242.861083 
L 903.437432 233.578873 
L 905.158167 221.736339 
L 906.878902 206.328572 
L 908.599637 176.463491 
L 910.320373 166.041767 
L 912.041108 172.005551 
L 913.761843 176.395159 
L 915.482578 175.970235 
L 917.203313 172.376934 
L 918.924048 175.722676 
L 920.644784 196.675364 
L 922.365519 208.635797 
L 924.086254 195.056144 
L 925.806989 185.657579 
L 927.527724 188.286358 
L 929.248459 193.436124 
L 930.969195 200.614015 
L 932.68993 210.253588 
L 934.410665 185.720529 
L 936.1314 185.367701 
L 937.852135 212.936752 
L 939.57287 222.319028 
L 941.293606 224.726899 
L 943.014341 233.919478 
L 944.735076 236.628301 
L 946.455811 230.577024 
L 948.176546 253.469363 
L 949.897281 267.714204 
L 951.618017 260.444351 
L 953.338752 251.06227 
L 956.780222 229.532947 
L 958.500957 233.246254 
L 960.221692 236.066968 
L 961.942428 214.627981 
L 963.663163 186.61903 
L 965.383898 176.450578 
L 967.104633 176.709194 
L 968.825368 175.669196 
L 970.546103 171.666971 
L 972.266839 166.486637 
L 973.987574 167.430382 
L 975.708309 195.57339 
L 979.149779 284.677835 
L 980.870514 318.031157 
L 982.59125 348.229226 
L 984.311985 373.183476 
L 986.03272 387.326365 
L 987.753455 396.345188 
L 989.47419 396.15367 
L 992.915661 369.24223 
L 994.636396 367.524567 
L 996.357131 371.618688 
L 998.077866 371.53716 
L 999.798601 375.358438 
L 1001.519336 376.204413 
L 1003.240072 389.291035 
L 1004.960807 410.705159 
L 1006.681542 415.112727 
L 1008.402277 411.39941 
L 1010.123012 405.61688 
L 1013.564483 369.897047 
L 1015.285218 358.119103 
L 1017.005953 336.135469 
L 1018.726688 300.394438 
L 1020.447423 277.101111 
L 1022.168158 269.80889 
L 1023.888894 261.17391 
L 1025.609629 267.945951 
L 1027.330364 265.275595 
L 1030.771834 245.990758 
L 1034.213305 254.450262 
L 1035.93404 243.862675 
L 1037.654775 240.616428 
L 1039.37551 229.062236 
L 1041.096245 229.048698 
L 1042.816981 239.012738 
L 1044.537716 254.374554 
L 1046.258451 251.547988 
L 1047.979186 243.64023 
L 1049.699921 257.73282 
L 1051.420656 262.11442 
L 1053.141392 272.900519 
L 1054.862127 282.114484 
L 1056.582862 274.06198 
L 1058.303597 264.732042 
L 1060.024332 265.470796 
L 1061.745067 269.373892 
L 1063.465803 261.94829 
L 1065.186538 252.944482 
L 1066.907273 234.149952 
L 1068.628008 209.966115 
L 1072.069478 149.116874 
L 1073.790214 125.25529 
L 1075.510949 96.355718 
L 1077.231684 74.115985 
L 1078.952419 66.401603 
L 1080.673154 71.669986 
L 1082.393889 80.044993 
L 1084.114625 93.167948 
L 1085.83536 102.663035 
L 1087.556095 110.945647 
L 1089.27683 141.221525 
L 1090.997565 186.741513 
L 1092.7183 209.225902 
L 1094.439036 204.623876 
L 1096.159771 206.5911 
L 1097.880506 202.101358 
L 1101.321976 238.881522 
L 1104.763447 215.123074 
L 1106.484182 228.701861 
L 1108.204917 260.649601 
L 1109.925652 261.959911 
L 1111.646387 257.941746 
L 1113.367122 260.207621 
L 1115.087858 255.35099 
L 1118.529328 266.519341 
L 1120.250063 257.217025 
L 1121.970798 234.307609 
L 1123.691533 242.791297 
L 1125.412269 248.257057 
L 1127.133004 231.129573 
L 1128.853739 229.100307 
L 1130.574474 228.916074 
L 1132.295209 229.019235 
L 1134.015944 230.921978 
L 1135.73668 239.185654 
L 1137.457415 232.318127 
L 1139.17815 231.968103 
L 1140.898885 240.742012 
L 1142.61962 241.786834 
L 1144.340355 241.792444 
L 1146.061091 241.071853 
L 1147.781826 232.572388 
L 1151.223296 225.578635 
L 1152.944031 217.940239 
L 1154.664766 217.284117 
L 1156.385502 217.2526 
L 1158.106237 217.887156 
L 1159.826972 224.895914 
L 1161.547707 247.67955 
L 1163.268442 254.525705 
L 1166.709913 266.004573 
L 1168.430648 266.501474 
L 1170.151383 266.461954 
L 1171.872118 265.442247 
L 1173.592853 253.040564 
L 1175.313588 233.562775 
L 1177.034324 229.947715 
L 1178.755059 229.690014 
L 1180.475794 229.689391 
L 1182.196529 229.523342 
L 1183.917264 226.823691 
L 1185.637999 218.600993 
L 1189.07947 229.23147 
L 1190.800205 229.651948 
L 1194.241675 229.69014 
L 1195.96241 230.024827 
L 1197.683146 235.524709 
L 1199.403881 252.355404 
L 1201.124616 254.171836 
L 1202.845351 258.090013 
L 1204.566086 265.84987 
L 1206.286821 266.443273 
L 1208.007557 266.103254 
L 1209.728292 260.929107 
L 1213.169762 242.778271 
L 1214.890497 241.38568 
L 1216.611232 233.629242 
L 1218.331968 218.604192 
L 1220.052703 217.424764 
L 1221.773438 218.109331 
L 1223.494173 228.618647 
L 1225.214908 240.318977 
L 1226.935643 235.871769 
L 1228.656379 230.107941 
L 1230.377114 233.643781 
L 1232.097849 241.170205 
L 1233.818584 241.768568 
L 1235.539319 241.312262 
L 1237.260054 233.973769 
L 1238.98079 220.084124 
L 1240.701525 228.872946 
L 1242.42226 240.829154 
L 1244.142995 241.78728 
L 1249.305201 242.093024 
L 1251.025936 246.110421 
L 1252.746671 262.982734 
L 1254.467406 260.51333 
L 1256.188141 254.583624 
L 1259.629612 253.590636 
L 1261.350347 248.113832 
L 1263.071082 242.226735 
L 1264.791817 239.215016 
L 1266.512552 224.237181 
L 1268.233287 217.3679 
L 1269.954023 216.890341 
L 1273.395493 216.740889 
L 1275.116228 219.06742 
L 1276.836963 228.062149 
L 1278.557698 228.108961 
L 1280.278434 232.372246 
L 1281.999169 241.123981 
L 1283.719904 241.79714 
L 1285.440639 241.689518 
L 1287.161374 238.794848 
L 1288.882109 243.308391 
L 1290.602845 241.879633 
L 1292.32358 239.533956 
L 1294.044315 244.002189 
L 1295.76505 241.663749 
L 1299.20652 229.664202 
L 1300.927256 236.631204 
L 1302.647991 235.723442 
L 1304.368726 224.263509 
L 1306.089461 221.861834 
L 1307.810196 216.692009 
L 1309.530931 215.06813 
L 1311.251667 223.524491 
L 1312.972402 226.953043 
L 1314.693137 223.442966 
L 1316.413872 225.890277 
L 1318.134607 235.895865 
L 1319.855342 242.340471 
L 1321.576078 253.422922 
L 1323.296813 252.941088 
L 1325.017548 244.207078 
L 1326.738283 254.654395 
L 1328.459018 251.966417 
L 1330.179753 243.004862 
L 1331.900489 241.672563 
L 1333.621224 240.719737 
L 1335.341959 229.722133 
L 1337.062694 232.513919 
L 1338.783429 238.717527 
L 1340.504164 221.656267 
L 1342.2249 217.094114 
L 1343.945635 222.187685 
L 1345.66637 224.027144 
L 1347.387105 231.456963 
L 1349.10784 236.641749 
L 1350.828575 215.595528 
L 1352.549311 213.02954 
L 1354.270046 232.810578 
L 1355.990781 240.95145 
L 1357.711516 239.850607 
L 1359.432251 241.8106 
L 1361.152986 224.914202 
L 1362.873722 215.027835 
L 1362.873722 215.027835 
" style="fill:none;stroke:#1f77b4;stroke-linecap:square;stroke-width:1.5;"/>
   </g>
   <g id="line2d_16">
    <path clip-path="url(#pcbd0c20e95)" d="M 94.691903 228.710409 
L 96.412639 226.162882 
L 98.133374 219.315112 
L 101.574844 201.360832 
L 103.295579 193.807087 
L 105.016314 188.540869 
L 106.73705 185.987969 
L 108.457785 185.689662 
L 110.17852 187.328764 
L 111.899255 190.547991 
L 113.61999 194.32065 
L 115.340725 197.389215 
L 117.061461 198.710613 
L 118.782196 197.643215 
L 120.502931 194.41849 
L 122.223666 189.960797 
L 125.665136 180.000053 
L 127.385872 175.936957 
L 129.106607 173.796143 
L 130.827342 174.22337 
L 132.548077 176.999376 
L 135.989547 185.153398 
L 137.710283 188.320187 
L 139.431018 190.210719 
L 141.151753 190.863419 
L 142.872488 190.545675 
L 146.313958 188.835338 
L 148.034694 189.336756 
L 149.755429 192.480393 
L 151.476164 198.993688 
L 153.196899 208.225025 
L 154.917634 218.341092 
L 156.638369 227.271591 
L 158.359105 233.64544 
L 160.07984 236.981906 
L 161.800575 237.280045 
L 163.52131 234.79216 
L 165.242045 230.384286 
L 166.96278 225.395967 
L 168.683516 221.384049 
L 170.404251 219.873077 
L 172.124986 221.780512 
L 173.845721 226.907871 
L 177.287191 241.173974 
L 179.007927 246.500224 
L 180.728662 249.266836 
L 182.449397 249.699905 
L 184.170132 247.961968 
L 185.890867 243.86871 
L 187.611602 237.414558 
L 192.773808 213.000272 
L 194.494543 207.827906 
L 196.215278 205.16155 
L 197.936013 204.765428 
L 199.656749 206.446091 
L 201.377484 210.287103 
L 203.098219 216.609288 
L 204.818954 225.278508 
L 208.260424 244.699607 
L 209.98116 252.302323 
L 211.701895 257.42554 
L 213.42263 260.682085 
L 215.143365 262.671012 
L 216.8641 263.127367 
L 218.584835 261.412251 
L 220.305571 257.306712 
L 223.747041 245.675768 
L 225.467776 240.966688 
L 227.188511 237.543851 
L 228.909246 234.894471 
L 230.629982 232.616483 
L 232.350717 230.944951 
L 234.071452 230.436791 
L 235.792187 231.293466 
L 239.233657 234.752688 
L 240.954393 235.675437 
L 242.675128 235.740198 
L 244.395863 235.525712 
L 246.116598 235.600276 
L 247.837333 236.106612 
L 249.558068 236.766425 
L 251.278804 237.570793 
L 252.999539 238.978666 
L 254.720274 241.133399 
L 256.441009 243.615734 
L 258.161744 245.6334 
L 259.882479 246.346589 
L 261.603215 245.519846 
L 263.32395 243.540417 
L 265.044685 240.460033 
L 266.76542 236.247823 
L 268.486155 231.680453 
L 270.20689 228.056233 
L 271.927626 226.611298 
L 273.648361 227.904796 
L 275.369096 231.193502 
L 282.252037 247.030932 
L 283.972772 250.40843 
L 285.693507 252.69357 
L 287.414242 253.491984 
L 289.134977 253.26057 
L 290.855712 252.803948 
L 292.576448 252.672259 
L 294.297183 252.755193 
L 296.017918 252.117036 
L 297.738653 249.88508 
L 299.459388 246.321392 
L 301.180123 242.390086 
L 302.900859 239.012013 
L 304.621594 236.586962 
L 306.342329 234.971088 
L 308.063064 233.965422 
L 309.783799 233.795762 
L 311.504534 234.804534 
L 314.946005 238.648191 
L 316.66674 239.526341 
L 318.387475 238.937648 
L 320.10821 237.131505 
L 323.549681 232.59139 
L 325.270416 230.957325 
L 326.991151 230.100626 
L 328.711886 230.143477 
L 330.432621 231.059572 
L 332.153356 232.705134 
L 333.874092 234.780954 
L 335.594827 236.64164 
L 337.315562 237.589896 
L 339.036297 237.276131 
L 340.757032 235.954677 
L 342.477767 234.465738 
L 344.198503 233.633628 
L 345.919238 233.60969 
L 347.639973 234.144726 
L 349.360708 235.21028 
L 351.081443 236.953626 
L 352.802178 239.479074 
L 354.522914 242.46937 
L 356.243649 245.008926 
L 357.964384 246.286527 
L 359.685119 246.193634 
L 361.405854 245.160123 
L 364.847325 242.486248 
L 366.56806 241.556271 
L 368.288795 241.006407 
L 370.00953 240.932855 
L 371.730265 241.310204 
L 375.171736 242.501051 
L 376.892471 242.728994 
L 378.613206 242.472573 
L 380.333941 241.775649 
L 382.054676 240.764905 
L 385.496147 238.178495 
L 387.216882 237.335673 
L 388.937617 237.485707 
L 390.658352 238.989818 
L 392.379087 241.661295 
L 394.099822 244.649175 
L 395.820558 247.087893 
L 397.541293 248.742692 
L 399.262028 249.731513 
L 400.982763 250.201019 
L 402.703498 250.091813 
L 404.424233 249.15801 
L 406.144969 247.655035 
L 407.865704 246.417117 
L 409.586439 245.989004 
L 411.307174 246.256856 
L 413.027909 246.927494 
L 414.748644 247.726382 
L 416.46938 248.304544 
L 418.190115 248.301631 
L 419.91085 247.174224 
L 421.631585 244.460517 
L 423.35232 240.475643 
L 425.073055 236.187371 
L 426.793791 232.485351 
L 428.514526 229.842572 
L 430.235261 228.32779 
L 431.955996 227.647727 
L 433.676731 227.60539 
L 435.397467 228.229266 
L 437.118202 229.576409 
L 440.559672 233.716231 
L 442.280407 235.282857 
L 444.001142 236.180509 
L 445.721878 236.929418 
L 447.442613 237.921142 
L 450.884083 240.533569 
L 452.604818 241.413393 
L 454.325553 241.700466 
L 456.046289 241.402446 
L 457.767024 240.491364 
L 459.487759 239.223196 
L 461.208494 238.189154 
L 462.929229 238.092642 
L 464.649964 239.329079 
L 468.091435 243.615249 
L 469.81217 244.891514 
L 471.532905 245.197431 
L 473.25364 244.76124 
L 474.974375 243.882928 
L 476.695111 242.360892 
L 478.415846 239.769008 
L 481.857316 232.609576 
L 483.578051 230.363368 
L 485.298786 230.133956 
L 487.019522 231.499102 
L 488.740257 233.287629 
L 490.460992 234.583118 
L 492.181727 235.07256 
L 493.902462 235.188505 
L 495.623197 235.569305 
L 497.343933 236.546872 
L 502.506138 240.619417 
L 504.226873 241.642214 
L 505.947608 242.422898 
L 507.668344 242.886639 
L 509.389079 242.898726 
L 511.109814 242.345877 
L 512.830549 241.305037 
L 516.272019 238.901129 
L 517.992755 238.289395 
L 519.71349 238.85411 
L 521.434225 240.66076 
L 523.15496 243.041708 
L 524.875695 245.060644 
L 526.59643 246.206889 
L 528.317166 246.592803 
L 530.037901 246.596462 
L 531.758636 246.336592 
L 533.479371 245.541868 
L 535.200106 244.018838 
L 536.920841 241.897947 
L 540.362312 237.392614 
L 542.083047 235.434004 
L 545.524517 232.174156 
L 547.245252 230.879374 
L 548.965988 230.231622 
L 550.686723 230.470008 
L 552.407458 231.598484 
L 554.128193 233.491707 
L 555.848928 235.94233 
L 557.569663 238.774911 
L 561.011134 244.980297 
L 562.731869 247.35962 
L 564.452604 248.578691 
L 566.173339 248.294226 
L 567.894074 246.603332 
L 569.61481 243.920252 
L 573.05628 237.78321 
L 574.777015 235.434243 
L 576.49775 234.171105 
L 578.218485 234.3063 
L 579.939221 236.016686 
L 581.659956 238.939769 
L 583.380691 242.209086 
L 585.101426 244.878698 
L 586.822161 246.407095 
L 588.542896 246.515927 
L 590.263632 245.324693 
L 595.425837 239.815981 
L 597.146572 238.537815 
L 598.867307 237.835967 
L 600.588043 237.771191 
L 602.308778 238.498363 
L 604.029513 239.553752 
L 605.750248 239.950031 
L 607.470983 239.064257 
L 609.191718 236.767013 
L 612.633189 230.427206 
L 614.353924 227.81661 
L 616.074659 226.070411 
L 617.795394 225.560344 
L 619.516129 226.373746 
L 621.236865 228.603524 
L 622.9576 232.337451 
L 626.39907 241.737182 
L 628.119805 245.961493 
L 629.84054 249.222797 
L 631.561276 251.614829 
L 635.002746 255.703663 
L 636.723481 257.503757 
L 638.444216 258.69042 
L 640.164951 258.698067 
L 641.885687 257.284702 
L 643.606422 254.437762 
L 645.327157 250.127524 
L 647.047892 244.538596 
L 650.489362 231.572029 
L 652.210098 226.0721 
L 653.930833 222.845957 
L 655.651568 222.443101 
L 657.372303 224.536329 
L 659.093038 228.274442 
L 662.534509 237.228326 
L 664.255244 241.163834 
L 665.975979 244.236564 
L 667.696714 246.19318 
L 669.417449 246.700705 
L 671.138184 245.464588 
L 672.85892 242.243262 
L 674.579655 235.825321 
L 676.30039 223.055873 
L 678.021125 200.791489 
L 679.74186 168.728236 
L 683.183331 92.234426 
L 684.904066 60.458494 
L 686.624801 39.17564 
L 688.345536 28.562196 
L 690.066271 25.923159 
L 691.787006 29.222979 
L 693.507742 39.599081 
L 695.228477 59.331828 
L 696.949212 88.359889 
L 700.390682 158.605047 
L 702.111417 188.33825 
L 703.832153 209.202058 
L 705.552888 221.694226 
L 707.273623 228.748712 
L 708.994358 233.181489 
L 710.715093 236.714263 
L 714.156564 243.13897 
L 715.877299 246.142137 
L 717.598034 248.844665 
L 719.318769 250.96837 
L 721.039504 252.23231 
L 722.760239 252.254297 
L 724.480975 250.7216 
L 726.20171 247.89199 
L 729.64318 240.581683 
L 731.363915 237.464028 
L 733.08465 235.136589 
L 734.805386 233.521683 
L 736.526121 232.59016 
L 738.246856 232.356365 
L 739.967591 232.697758 
L 743.409061 234.341705 
L 745.129797 234.624449 
L 746.850532 234.188804 
L 748.571267 233.446196 
L 750.292002 233.15865 
L 752.012737 233.924219 
L 753.733472 235.838535 
L 757.174943 240.966319 
L 758.895678 243.034214 
L 760.616413 244.530791 
L 762.337148 245.556549 
L 764.057883 245.979574 
L 765.778619 245.659416 
L 767.499354 244.721097 
L 769.220089 243.535345 
L 770.940824 242.702764 
L 772.661559 242.826947 
L 774.382294 243.842077 
L 776.10303 245.07917 
L 777.823765 245.978203 
L 779.5445 246.41669 
L 781.265235 246.664719 
L 782.98597 247.095625 
L 784.706705 247.740833 
L 786.427441 248.207102 
L 788.148176 248.263042 
L 791.589646 247.58135 
L 793.310381 247.143804 
L 795.031116 245.975483 
L 796.751852 243.010849 
L 798.472587 237.647257 
L 801.914057 223.125263 
L 803.634792 217.649788 
L 805.355527 215.706017 
L 807.076263 218.140064 
L 808.796998 225.172166 
L 810.517733 236.600494 
L 812.238468 251.697295 
L 813.959203 268.548653 
L 815.679938 284.188006 
L 817.400674 295.340464 
L 819.121409 299.634415 
L 820.842144 296.576469 
L 822.562879 287.567373 
L 824.283614 274.81132 
L 827.725085 247.01776 
L 829.44582 235.710061 
L 831.166555 227.321515 
L 832.88729 222.097729 
L 834.608025 219.905972 
L 836.32876 220.238194 
L 839.770231 224.331158 
L 841.490966 225.304706 
L 844.932436 225.113279 
L 846.653171 226.033936 
L 848.373907 228.202498 
L 850.094642 230.689686 
L 851.815377 232.143392 
L 853.536112 232.248643 
L 855.256847 231.516737 
L 856.977582 230.601105 
L 858.698318 230.207947 
L 860.419053 230.582357 
L 862.139788 231.35926 
L 863.860523 232.591754 
L 865.581258 235.01035 
L 867.301993 239.202748 
L 870.743464 251.168363 
L 872.464199 255.917063 
L 874.184934 257.92039 
L 875.905669 256.797868 
L 877.626404 252.714383 
L 879.34714 246.072065 
L 882.78861 229.292459 
L 884.509345 222.238694 
L 886.23008 217.932876 
L 887.950815 217.222634 
L 889.671551 220.498809 
L 891.392286 227.475877 
L 894.833756 246.024414 
L 896.554491 252.653761 
L 898.275226 254.750194 
L 899.995962 251.452732 
L 901.716697 243.067695 
L 903.437432 230.857956 
L 906.878902 202.620182 
L 908.599637 190.524083 
L 910.320373 181.580097 
L 912.041108 176.241404 
L 913.761843 174.560182 
L 915.482578 176.223606 
L 917.203313 180.130824 
L 918.924048 184.749718 
L 920.644784 188.916453 
L 922.365519 191.873599 
L 924.086254 193.363453 
L 925.806989 193.934235 
L 929.248459 194.701226 
L 930.969195 195.538282 
L 932.68993 197.040853 
L 934.410665 199.462993 
L 936.1314 203.367911 
L 937.852135 209.109028 
L 944.735076 236.851808 
L 946.455811 243.004894 
L 948.176546 248.290941 
L 949.897281 251.346269 
L 951.618017 251.304327 
L 953.338752 248.384852 
L 955.059487 243.323831 
L 956.780222 236.794708 
L 958.500957 228.980937 
L 960.221692 219.658143 
L 965.383898 187.915314 
L 967.104633 179.981637 
L 968.825368 175.345105 
L 970.546103 175.140151 
L 972.266839 180.865815 
L 973.987574 194.182669 
L 975.708309 215.794557 
L 977.429044 244.479476 
L 980.870514 309.465006 
L 982.59125 337.95384 
L 984.311985 360.165406 
L 986.03272 375.051462 
L 987.753455 382.670515 
L 989.47419 384.200463 
L 991.194925 381.739214 
L 992.915661 377.766877 
L 994.636396 374.376567 
L 996.357131 372.958483 
L 998.077866 374.366058 
L 999.798601 378.697983 
L 1001.519336 385.202049 
L 1003.240072 392.62897 
L 1004.960807 399.22611 
L 1006.681542 402.830207 
L 1008.402277 401.775476 
L 1010.123012 395.459434 
L 1011.843747 384.09766 
L 1013.564483 368.439488 
L 1015.285218 349.632291 
L 1018.726688 309.343107 
L 1020.447423 292.150535 
L 1022.168158 279.015899 
L 1023.888894 270.067771 
L 1025.609629 264.297443 
L 1027.330364 260.288747 
L 1037.654775 240.33013 
L 1039.37551 238.727225 
L 1041.096245 239.025176 
L 1042.816981 241.208264 
L 1044.537716 244.73198 
L 1046.258451 248.951328 
L 1049.699921 258.558976 
L 1051.420656 263.470352 
L 1053.141392 267.646721 
L 1054.862127 270.284618 
L 1056.582862 270.861547 
L 1058.303597 269.533463 
L 1060.024332 266.534953 
L 1061.745067 261.565008 
L 1063.465803 253.748562 
L 1065.186538 241.753729 
L 1066.907273 224.780146 
L 1068.628008 203.253487 
L 1073.790214 127.636717 
L 1075.510949 106.466479 
L 1077.231684 91.092635 
L 1078.952419 82.645646 
L 1080.673154 80.987081 
L 1082.393889 85.284075 
L 1084.114625 94.918819 
L 1085.83536 109.541079 
L 1087.556095 128.213755 
L 1090.997565 169.061502 
L 1092.7183 185.969116 
L 1094.439036 198.697552 
L 1096.159771 207.547856 
L 1097.880506 213.50912 
L 1101.321976 222.294914 
L 1103.042711 227.264461 
L 1104.763447 233.000538 
L 1109.925652 252.041648 
L 1111.646387 256.638876 
L 1113.367122 259.075367 
L 1115.087858 259.35858 
L 1116.808593 258.015812 
L 1118.529328 255.592363 
L 1120.250063 252.188425 
L 1121.970798 247.964557 
L 1125.412269 239.100302 
L 1127.133004 235.665692 
L 1128.853739 233.295077 
L 1130.574474 231.896397 
L 1132.295209 231.483693 
L 1134.015944 232.130785 
L 1135.73668 233.427799 
L 1140.898885 237.950287 
L 1142.61962 238.638855 
L 1144.340355 238.276856 
L 1146.061091 236.494762 
L 1147.781826 233.280397 
L 1151.223296 225.33907 
L 1152.944031 222.168819 
L 1154.664766 220.783393 
L 1156.385502 222.081359 
L 1158.106237 226.35012 
L 1159.826972 233.188359 
L 1163.268442 249.736384 
L 1164.989177 256.680046 
L 1166.709913 261.250599 
L 1168.430648 262.685114 
L 1170.151383 260.831513 
L 1171.872118 256.150721 
L 1177.034324 236.60513 
L 1178.755059 232.108104 
L 1180.475794 229.154508 
L 1182.196529 227.367589 
L 1183.917264 226.291641 
L 1185.637999 225.816985 
L 1187.358735 226.046034 
L 1189.07947 226.892774 
L 1190.800205 228.151618 
L 1192.52094 229.889228 
L 1194.241675 232.400253 
L 1195.96241 236.002044 
L 1197.683146 240.874684 
L 1201.124616 252.579508 
L 1202.845351 257.640467 
L 1204.566086 260.94108 
L 1206.286821 261.889544 
L 1208.007557 260.479082 
L 1209.728292 257.002739 
L 1211.449027 251.75144 
L 1213.169762 245.275085 
L 1214.890497 238.35902 
L 1216.611232 232.010799 
L 1218.331968 227.440403 
L 1220.052703 225.422581 
L 1221.773438 225.832149 
L 1223.494173 227.920842 
L 1225.214908 230.712283 
L 1226.935643 233.291568 
L 1228.656379 235.26263 
L 1230.377114 236.622335 
L 1232.097849 237.205093 
L 1233.818584 236.830885 
L 1235.539319 235.657243 
L 1237.260054 234.25518 
L 1238.98079 233.498028 
L 1240.701525 234.05711 
L 1242.42226 235.893798 
L 1244.142995 238.407087 
L 1247.584465 243.953095 
L 1252.746671 252.993685 
L 1254.467406 254.815242 
L 1256.188141 255.026523 
L 1257.908876 253.502557 
L 1259.629612 250.433535 
L 1261.350347 246.101767 
L 1263.071082 240.732624 
L 1266.512552 228.654215 
L 1268.233287 223.610622 
L 1269.954023 220.302394 
L 1271.674758 219.123551 
L 1273.395493 219.95411 
L 1275.116228 222.325077 
L 1276.836963 225.702649 
L 1280.278434 233.402345 
L 1281.999169 236.58988 
L 1283.719904 238.927011 
L 1285.440639 240.392015 
L 1287.161374 241.120616 
L 1288.882109 241.397812 
L 1290.602845 241.437499 
L 1292.32358 241.066555 
L 1294.044315 240.109144 
L 1295.76505 238.718364 
L 1297.485785 237.033978 
L 1299.20652 235.012249 
L 1300.927256 232.534774 
L 1306.089461 223.667942 
L 1307.810196 221.752779 
L 1309.530931 221.151963 
L 1311.251667 222.008868 
L 1312.972402 224.108514 
L 1314.693137 227.332178 
L 1316.413872 231.598985 
L 1319.855342 241.178241 
L 1321.576078 245.412483 
L 1323.296813 248.333358 
L 1325.017548 249.479907 
L 1326.738283 249.045561 
L 1328.459018 247.361533 
L 1330.179753 244.765487 
L 1333.621224 238.668416 
L 1338.783429 229.272859 
L 1340.504164 226.680643 
L 1342.2249 225.251369 
L 1343.945635 224.955061 
L 1347.387105 225.334103 
L 1349.10784 225.599866 
L 1350.828575 226.192193 
L 1352.549311 227.704357 
L 1355.990781 232.299444 
L 1357.711516 233.210573 
L 1359.432251 232.442005 
L 1361.152986 230.849256 
L 1362.873722 230.037192 
L 1362.873722 230.037192 
" style="fill:none;stroke:#ff7f0e;stroke-linecap:square;stroke-width:1.5;"/>
   </g>
   <g id="patch_3">
    <path d="M 31.282813 434.88 
L 31.282813 -0 
" style="fill:none;stroke:#000000;stroke-linecap:square;stroke-linejoin:miter;stroke-width:0.8;"/>
   </g>
   <g id="patch_4">
    <path d="M 1426.282813 434.88 
L 1426.282813 -0 
" style="fill:none;stroke:#000000;stroke-linecap:square;stroke-linejoin:miter;stroke-width:0.8;"/>
   </g>
   <g id="patch_5">
    <path d="M 31.282813 434.88 
L 1426.282812 434.88 
" style="fill:none;stroke:#000000;stroke-linecap:square;stroke-linejoin:miter;stroke-width:0.8;"/>
   </g>
   <g id="patch_6">
    <path d="M 31.282813 -0 
L 1426.282812 -0 
" style="fill:none;stroke:#000000;stroke-linecap:square;stroke-linejoin:miter;stroke-width:0.8;"/>
   </g>
   <g id="legend_1">
    <g id="patch_7">
     <path d="M 45.282813 424.88 
L 434.720313 424.88 
Q 438.720313 424.88 438.720313 420.88 
L 438.720313 364.1675 
Q 438.720313 360.1675 434.720313 360.1675 
L 45.282813 360.1675 
Q 41.282813 360.1675 41.282813 364.1675 
L 41.282813 420.88 
Q 41.282813 424.88 45.282813 424.88 
z
" style="fill:#ffffff;opacity:0.8;stroke:#cccccc;stroke-linejoin:miter;"/>
    </g>
    <g id="line2d_17">
     <path d="M 49.282813 376.364375 
L 89.282813 376.364375 
" style="fill:none;stroke:#1f77b4;stroke-linecap:square;stroke-width:1.5;"/>
    </g>
    <g id="line2d_18"/>
    <g id="text_15">
     <!-- Curvature distribution -->
     <g transform="translate(105.282813 383.364375)scale(0.2 -0.2)">
      <defs>
       <path d="M 4122 4306 
L 4122 3641 
Q 3803 3938 3442 4084 
Q 3081 4231 2675 4231 
Q 1875 4231 1450 3742 
Q 1025 3253 1025 2328 
Q 1025 1406 1450 917 
Q 1875 428 2675 428 
Q 3081 428 3442 575 
Q 3803 722 4122 1019 
L 4122 359 
Q 3791 134 3420 21 
Q 3050 -91 2638 -91 
Q 1578 -91 968 557 
Q 359 1206 359 2328 
Q 359 3453 968 4101 
Q 1578 4750 2638 4750 
Q 3056 4750 3426 4639 
Q 3797 4528 4122 4306 
z
" id="DejaVuSans-43" transform="scale(0.015625)"/>
       <path d="M 544 1381 
L 544 3500 
L 1119 3500 
L 1119 1403 
Q 1119 906 1312 657 
Q 1506 409 1894 409 
Q 2359 409 2629 706 
Q 2900 1003 2900 1516 
L 2900 3500 
L 3475 3500 
L 3475 0 
L 2900 0 
L 2900 538 
Q 2691 219 2414 64 
Q 2138 -91 1772 -91 
Q 1169 -91 856 284 
Q 544 659 544 1381 
z
M 1991 3584 
L 1991 3584 
z
" id="DejaVuSans-75" transform="scale(0.015625)"/>
       <path d="M 2631 2963 
Q 2534 3019 2420 3045 
Q 2306 3072 2169 3072 
Q 1681 3072 1420 2755 
Q 1159 2438 1159 1844 
L 1159 0 
L 581 0 
L 581 3500 
L 1159 3500 
L 1159 2956 
Q 1341 3275 1631 3429 
Q 1922 3584 2338 3584 
Q 2397 3584 2469 3576 
Q 2541 3569 2628 3553 
L 2631 2963 
z
" id="DejaVuSans-72" transform="scale(0.015625)"/>
       <path d="M 191 3500 
L 800 3500 
L 1894 563 
L 2988 3500 
L 3597 3500 
L 2284 0 
L 1503 0 
L 191 3500 
z
" id="DejaVuSans-76" transform="scale(0.015625)"/>
       <path d="M 2194 1759 
Q 1497 1759 1228 1600 
Q 959 1441 959 1056 
Q 959 750 1161 570 
Q 1363 391 1709 391 
Q 2188 391 2477 730 
Q 2766 1069 2766 1631 
L 2766 1759 
L 2194 1759 
z
M 3341 1997 
L 3341 0 
L 2766 0 
L 2766 531 
Q 2569 213 2275 61 
Q 1981 -91 1556 -91 
Q 1019 -91 701 211 
Q 384 513 384 1019 
Q 384 1609 779 1909 
Q 1175 2209 1959 2209 
L 2766 2209 
L 2766 2266 
Q 2766 2663 2505 2880 
Q 2244 3097 1772 3097 
Q 1472 3097 1187 3025 
Q 903 2953 641 2809 
L 641 3341 
Q 956 3463 1253 3523 
Q 1550 3584 1831 3584 
Q 2591 3584 2966 3190 
Q 3341 2797 3341 1997 
z
" id="DejaVuSans-61" transform="scale(0.015625)"/>
       <path d="M 1172 4494 
L 1172 3500 
L 2356 3500 
L 2356 3053 
L 1172 3053 
L 1172 1153 
Q 1172 725 1289 603 
Q 1406 481 1766 481 
L 2356 481 
L 2356 0 
L 1766 0 
Q 1100 0 847 248 
Q 594 497 594 1153 
L 594 3053 
L 172 3053 
L 172 3500 
L 594 3500 
L 594 4494 
L 1172 4494 
z
" id="DejaVuSans-74" transform="scale(0.015625)"/>
       <path d="M 3597 1894 
L 3597 1613 
L 953 1613 
Q 991 1019 1311 708 
Q 1631 397 2203 397 
Q 2534 397 2845 478 
Q 3156 559 3463 722 
L 3463 178 
Q 3153 47 2828 -22 
Q 2503 -91 2169 -91 
Q 1331 -91 842 396 
Q 353 884 353 1716 
Q 353 2575 817 3079 
Q 1281 3584 2069 3584 
Q 2775 3584 3186 3129 
Q 3597 2675 3597 1894 
z
M 3022 2063 
Q 3016 2534 2758 2815 
Q 2500 3097 2075 3097 
Q 1594 3097 1305 2825 
Q 1016 2553 972 2059 
L 3022 2063 
z
" id="DejaVuSans-65" transform="scale(0.015625)"/>
       <path id="DejaVuSans-20" transform="scale(0.015625)"/>
       <path d="M 2906 2969 
L 2906 4863 
L 3481 4863 
L 3481 0 
L 2906 0 
L 2906 525 
Q 2725 213 2448 61 
Q 2172 -91 1784 -91 
Q 1150 -91 751 415 
Q 353 922 353 1747 
Q 353 2572 751 3078 
Q 1150 3584 1784 3584 
Q 2172 3584 2448 3432 
Q 2725 3281 2906 2969 
z
M 947 1747 
Q 947 1113 1208 752 
Q 1469 391 1925 391 
Q 2381 391 2643 752 
Q 2906 1113 2906 1747 
Q 2906 2381 2643 2742 
Q 2381 3103 1925 3103 
Q 1469 3103 1208 2742 
Q 947 2381 947 1747 
z
" id="DejaVuSans-64" transform="scale(0.015625)"/>
       <path d="M 603 3500 
L 1178 3500 
L 1178 0 
L 603 0 
L 603 3500 
z
M 603 4863 
L 1178 4863 
L 1178 4134 
L 603 4134 
L 603 4863 
z
" id="DejaVuSans-69" transform="scale(0.015625)"/>
       <path d="M 2834 3397 
L 2834 2853 
Q 2591 2978 2328 3040 
Q 2066 3103 1784 3103 
Q 1356 3103 1142 2972 
Q 928 2841 928 2578 
Q 928 2378 1081 2264 
Q 1234 2150 1697 2047 
L 1894 2003 
Q 2506 1872 2764 1633 
Q 3022 1394 3022 966 
Q 3022 478 2636 193 
Q 2250 -91 1575 -91 
Q 1294 -91 989 -36 
Q 684 19 347 128 
L 347 722 
Q 666 556 975 473 
Q 1284 391 1588 391 
Q 1994 391 2212 530 
Q 2431 669 2431 922 
Q 2431 1156 2273 1281 
Q 2116 1406 1581 1522 
L 1381 1569 
Q 847 1681 609 1914 
Q 372 2147 372 2553 
Q 372 3047 722 3315 
Q 1072 3584 1716 3584 
Q 2034 3584 2315 3537 
Q 2597 3491 2834 3397 
z
" id="DejaVuSans-73" transform="scale(0.015625)"/>
       <path d="M 3116 1747 
Q 3116 2381 2855 2742 
Q 2594 3103 2138 3103 
Q 1681 3103 1420 2742 
Q 1159 2381 1159 1747 
Q 1159 1113 1420 752 
Q 1681 391 2138 391 
Q 2594 391 2855 752 
Q 3116 1113 3116 1747 
z
M 1159 2969 
Q 1341 3281 1617 3432 
Q 1894 3584 2278 3584 
Q 2916 3584 3314 3078 
Q 3713 2572 3713 1747 
Q 3713 922 3314 415 
Q 2916 -91 2278 -91 
Q 1894 -91 1617 61 
Q 1341 213 1159 525 
L 1159 0 
L 581 0 
L 581 4863 
L 1159 4863 
L 1159 2969 
z
" id="DejaVuSans-62" transform="scale(0.015625)"/>
       <path d="M 1959 3097 
Q 1497 3097 1228 2736 
Q 959 2375 959 1747 
Q 959 1119 1226 758 
Q 1494 397 1959 397 
Q 2419 397 2687 759 
Q 2956 1122 2956 1747 
Q 2956 2369 2687 2733 
Q 2419 3097 1959 3097 
z
M 1959 3584 
Q 2709 3584 3137 3096 
Q 3566 2609 3566 1747 
Q 3566 888 3137 398 
Q 2709 -91 1959 -91 
Q 1206 -91 779 398 
Q 353 888 353 1747 
Q 353 2609 779 3096 
Q 1206 3584 1959 3584 
z
" id="DejaVuSans-6f" transform="scale(0.015625)"/>
       <path d="M 3513 2113 
L 3513 0 
L 2938 0 
L 2938 2094 
Q 2938 2591 2744 2837 
Q 2550 3084 2163 3084 
Q 1697 3084 1428 2787 
Q 1159 2491 1159 1978 
L 1159 0 
L 581 0 
L 581 3500 
L 1159 3500 
L 1159 2956 
Q 1366 3272 1645 3428 
Q 1925 3584 2291 3584 
Q 2894 3584 3203 3211 
Q 3513 2838 3513 2113 
z
" id="DejaVuSans-6e" transform="scale(0.015625)"/>
      </defs>
      <use xlink:href="#DejaVuSans-43"/>
      <use x="69.824219" xlink:href="#DejaVuSans-75"/>
      <use x="133.203125" xlink:href="#DejaVuSans-72"/>
      <use x="174.316406" xlink:href="#DejaVuSans-76"/>
      <use x="233.496094" xlink:href="#DejaVuSans-61"/>
      <use x="294.775391" xlink:href="#DejaVuSans-74"/>
      <use x="333.984375" xlink:href="#DejaVuSans-75"/>
      <use x="397.363281" xlink:href="#DejaVuSans-72"/>
      <use x="436.226562" xlink:href="#DejaVuSans-65"/>
      <use x="497.75" xlink:href="#DejaVuSans-20"/>
      <use x="529.537109" xlink:href="#DejaVuSans-64"/>
      <use x="593.013672" xlink:href="#DejaVuSans-69"/>
      <use x="620.796875" xlink:href="#DejaVuSans-73"/>
      <use x="672.896484" xlink:href="#DejaVuSans-74"/>
      <use x="712.105469" xlink:href="#DejaVuSans-72"/>
      <use x="753.21875" xlink:href="#DejaVuSans-69"/>
      <use x="781.001953" xlink:href="#DejaVuSans-62"/>
      <use x="844.478516" xlink:href="#DejaVuSans-75"/>
      <use x="907.857422" xlink:href="#DejaVuSans-74"/>
      <use x="947.066406" xlink:href="#DejaVuSans-69"/>
      <use x="974.849609" xlink:href="#DejaVuSans-6f"/>
      <use x="1036.03125" xlink:href="#DejaVuSans-6e"/>
     </g>
    </g>
    <g id="line2d_19">
     <path d="M 49.282813 405.720625 
L 89.282813 405.720625 
" style="fill:none;stroke:#ff7f0e;stroke-linecap:square;stroke-width:1.5;"/>
    </g>
    <g id="line2d_20"/>
    <g id="text_16">
     <!-- Smoothed curvature distribution -->
     <g transform="translate(105.282813 412.720625)scale(0.2 -0.2)">
      <defs>
       <path d="M 3425 4513 
L 3425 3897 
Q 3066 4069 2747 4153 
Q 2428 4238 2131 4238 
Q 1616 4238 1336 4038 
Q 1056 3838 1056 3469 
Q 1056 3159 1242 3001 
Q 1428 2844 1947 2747 
L 2328 2669 
Q 3034 2534 3370 2195 
Q 3706 1856 3706 1288 
Q 3706 609 3251 259 
Q 2797 -91 1919 -91 
Q 1588 -91 1214 -16 
Q 841 59 441 206 
L 441 856 
Q 825 641 1194 531 
Q 1563 422 1919 422 
Q 2459 422 2753 634 
Q 3047 847 3047 1241 
Q 3047 1584 2836 1778 
Q 2625 1972 2144 2069 
L 1759 2144 
Q 1053 2284 737 2584 
Q 422 2884 422 3419 
Q 422 4038 858 4394 
Q 1294 4750 2059 4750 
Q 2388 4750 2728 4690 
Q 3069 4631 3425 4513 
z
" id="DejaVuSans-53" transform="scale(0.015625)"/>
       <path d="M 3328 2828 
Q 3544 3216 3844 3400 
Q 4144 3584 4550 3584 
Q 5097 3584 5394 3201 
Q 5691 2819 5691 2113 
L 5691 0 
L 5113 0 
L 5113 2094 
Q 5113 2597 4934 2840 
Q 4756 3084 4391 3084 
Q 3944 3084 3684 2787 
Q 3425 2491 3425 1978 
L 3425 0 
L 2847 0 
L 2847 2094 
Q 2847 2600 2669 2842 
Q 2491 3084 2119 3084 
Q 1678 3084 1418 2786 
Q 1159 2488 1159 1978 
L 1159 0 
L 581 0 
L 581 3500 
L 1159 3500 
L 1159 2956 
Q 1356 3278 1631 3431 
Q 1906 3584 2284 3584 
Q 2666 3584 2933 3390 
Q 3200 3197 3328 2828 
z
" id="DejaVuSans-6d" transform="scale(0.015625)"/>
       <path d="M 3513 2113 
L 3513 0 
L 2938 0 
L 2938 2094 
Q 2938 2591 2744 2837 
Q 2550 3084 2163 3084 
Q 1697 3084 1428 2787 
Q 1159 2491 1159 1978 
L 1159 0 
L 581 0 
L 581 4863 
L 1159 4863 
L 1159 2956 
Q 1366 3272 1645 3428 
Q 1925 3584 2291 3584 
Q 2894 3584 3203 3211 
Q 3513 2838 3513 2113 
z
" id="DejaVuSans-68" transform="scale(0.015625)"/>
       <path d="M 3122 3366 
L 3122 2828 
Q 2878 2963 2633 3030 
Q 2388 3097 2138 3097 
Q 1578 3097 1268 2742 
Q 959 2388 959 1747 
Q 959 1106 1268 751 
Q 1578 397 2138 397 
Q 2388 397 2633 464 
Q 2878 531 3122 666 
L 3122 134 
Q 2881 22 2623 -34 
Q 2366 -91 2075 -91 
Q 1284 -91 818 406 
Q 353 903 353 1747 
Q 353 2603 823 3093 
Q 1294 3584 2113 3584 
Q 2378 3584 2631 3529 
Q 2884 3475 3122 3366 
z
" id="DejaVuSans-63" transform="scale(0.015625)"/>
      </defs>
      <use xlink:href="#DejaVuSans-53"/>
      <use x="63.476562" xlink:href="#DejaVuSans-6d"/>
      <use x="160.888672" xlink:href="#DejaVuSans-6f"/>
      <use x="222.070312" xlink:href="#DejaVuSans-6f"/>
      <use x="283.251953" xlink:href="#DejaVuSans-74"/>
      <use x="322.460938" xlink:href="#DejaVuSans-68"/>
      <use x="385.839844" xlink:href="#DejaVuSans-65"/>
      <use x="447.363281" xlink:href="#DejaVuSans-64"/>
      <use x="510.839844" xlink:href="#DejaVuSans-20"/>
      <use x="542.626953" xlink:href="#DejaVuSans-63"/>
      <use x="597.607422" xlink:href="#DejaVuSans-75"/>
      <use x="660.986328" xlink:href="#DejaVuSans-72"/>
      <use x="702.099609" xlink:href="#DejaVuSans-76"/>
      <use x="761.279297" xlink:href="#DejaVuSans-61"/>
      <use x="822.558594" xlink:href="#DejaVuSans-74"/>
      <use x="861.767578" xlink:href="#DejaVuSans-75"/>
      <use x="925.146484" xlink:href="#DejaVuSans-72"/>
      <use x="964.009766" xlink:href="#DejaVuSans-65"/>
      <use x="1025.533203" xlink:href="#DejaVuSans-20"/>
      <use x="1057.320312" xlink:href="#DejaVuSans-64"/>
      <use x="1120.796875" xlink:href="#DejaVuSans-69"/>
      <use x="1148.580078" xlink:href="#DejaVuSans-73"/>
      <use x="1200.679688" xlink:href="#DejaVuSans-74"/>
      <use x="1239.888672" xlink:href="#DejaVuSans-72"/>
      <use x="1281.001953" xlink:href="#DejaVuSans-69"/>
      <use x="1308.785156" xlink:href="#DejaVuSans-62"/>
      <use x="1372.261719" xlink:href="#DejaVuSans-75"/>
      <use x="1435.640625" xlink:href="#DejaVuSans-74"/>
      <use x="1474.849609" xlink:href="#DejaVuSans-69"/>
      <use x="1502.632812" xlink:href="#DejaVuSans-6f"/>
      <use x="1563.814453" xlink:href="#DejaVuSans-6e"/>
     </g>
    </g>
   </g>
  </g>
 </g>
 <defs>
  <clipPath id="pcbd0c20e95">
   <rect height="434.88" width="1395" x="31.282813" y="-0"/>
  </clipPath>
 </defs>
</svg>
