<?xml version="1.0" encoding="utf-8" ?>
<svg xmlns="http://www.w3.org/2000/svg" xmlns:ev="http://www.w3.org/2001/xml-events" xmlns:xlink="http://www.w3.org/1999/xlink" baseProfile="tiny" height="540" version="1.2" width="1620">
<defs/>
<path d="
M1462.0,338.4 C1460.1,336.5, 1465.74,333.65, 1466.4,332.0, 1468.67,326.33, 1473.63,317.87, 1478.0,313.5, 1500.4,291.1, 1549.24,202.4, 1580.0,202.4, 1581.51,201.19, 1582.42,198.57, 1580.0,197.6, 1567.83,192.73, 1543.15,216.44, 1535.0,225.5, 1533.55,227.11, 1529.5,231.33, 1529.5,227.0, 1528.62,222.58, 1522.95,234.46, 1522.4,236.0, 1519.19,244.99, 1497.2,263.79, 1492.4,275.0, 1488.46,284.19, 1440.47,328.69, 1431.6,308.0, 1418.94,278.47, 1488.5,231.12, 1488.5,202.0, 1488.5,192.53, 1481.7,198.83, 1477.0,200.4, 1457.13,207.02, 1421.1,290.96, 1377.0,308.6, 1368.89,311.85, 1360.14,316.45, 1351.0,313.4, 1348.08,312.43, 1347.25,305.45, 1349.0,303.5, 1367.97,282.42, 1406.5,244.13, 1406.5,215.0, 1406.5,209.53, 1409.37,205.9, 1407.4,200.0, 1399.76,177.07, 1342.03,236.42, 1336.5,232.0, 1335.37,230.64, 1355.8,197.68, 1361.0,195.6, 1406.88,177.25, 1490.03,91.71, 1505.6,45.0, 1510.22,31.14, 1516.91,8.24, 1491.0,18.6, 1472.29,26.08, 1389.06,123.84, 1381.4,143.0, 1377.51,152.72, 1337.67,195.3, 1337.5,197.0, 1336.62,205.79, 1272.34,282.15, 1262.5,291.0, 1255.38,297.41, 1243.87,305.44, 1235.0,308.4, 1227.07,311.04, 1219.93,309.19, 1212.0,308.4, 1204.6,301.0, 1238.83,261.39, 1243.0,259.6, 1255.81,254.11, 1281.95,200.78, 1269.0,195.6, 1255.17,190.07, 1214.05,230.64, 1209.5,227.0, 1207.92,225.1, 1214.18,217.52, 1216.0,215.5, 1227.45,202.78, 1283.5,125.76, 1288.6,113.0, 1289.67,110.33, 1300.88,92.64, 1289.0,96.6, 1285.31,97.83, 1279.56,99.24, 1276.5,102.0, 1269.14,108.62, 1190.48,216.3, 1187.4,224.0, 1184.71,230.73, 1175.86,234.64, 1171.5,239.0, 1167.3,243.2, 1161.66,250.73, 1159.4,256.0, 1158.02,259.21, 1094.26,313.88, 1090.0,315.4, 1083.6,317.69, 1073.82,322.97, 1068.0,316.5, 1043.07,288.8, 1139.43,216.08, 1134.4,201.0, 1133.82,199.25, 1130.49,198.5, 1129.0,198.5, 1113.41,198.5, 1105.48,211.02, 1095.0,221.5, 1090.96,224.86, 1092.15,213.37, 1091.6,212.0, 1087.0,200.5, 1062.14,203.55, 1053.0,206.6, 1024.24,216.19, 970.89,303.1, 940.0,313.4, 936.43,314.59, 928.7,317.63, 925.0,316.4, 919.65,314.62, 911.57,306.09, 913.6,300.0, 921.83,275.32, 959.07,260.98, 968.4,233.0, 973.31,218.26, 963.05,202.65, 965.6,195.0, 968.81,185.37, 987.97,167.55, 988.5,157.0, 988.69,153.16, 993.56,146.47, 992.4,143.0, 984.66,119.79, 961.99,161.51, 957.0,166.5, 948.13,175.37, 956.75,191.95, 954.4,199.0, 948.23,217.5, 867.12,300.55, 847.0,308.6, 843.57,309.97, 841.43,315.03, 838.0,316.4, 825.05,321.58, 806.45,336.22, 791.0,342.4, 790.16,342.74, 783.94,346.77, 783.7,346.0, 782.12,340.86, 835.76,270.1, 840.6,258.0, 844.03,249.43, 861.3,236.2, 868.0,229.5, 876.48,221.02, 889.0,212.8, 900.0,208.4, 901.41,207.84, 904.46,204.99, 902.0,204.5, 889.88,205.71, 860.32,228.16, 850.5,237.0, 847.99,239.26, 846.9,242.36, 844.0,243.6, 842.32,244.32, 840.24,248.75, 839.7,247.0, 839.07,244.96, 842.5,227.99, 842.5,223.0, 842.5,211.89, 842.54,214.43, 837.0,207.5, 832.75,202.19, 830.31,201.13, 823.0,201.5, 801.21,202.59, 749.16,255.06, 742.4,274.0, 738.88,283.87, 668.16,340.9, 658.6,317.0, 657.37,313.93, 655.38,310.65, 656.6,307.0, 664.33,283.82, 736.85,215.51, 735.4,201.0, 731.62,197.22, 720.17,200.93, 716.0,202.6, 705.9,206.64, 660.05,273.14, 655.4,284.0, 652.48,290.81, 599.59,327.97, 592.4,310.0, 590.97,306.44, 587.6,303.03, 587.6,299.0, 587.6,292.67, 603.88,270.81, 606.6,264.0, 608.0,260.5, 614.1,258.91, 615.4,255.0, 618.86,244.61, 631.62,237.45, 635.4,228.0, 644.8,204.51, 700.7,176.62, 722.5,157.0, 733.84,146.8, 782.55,90.56, 786.4,79.0, 790.7,66.09, 814.79,24.11, 787.0,25.5, 784.94,25.6, 783.15,25.68, 781.5,27.0, 766.89,38.69, 706.83,107.99, 700.4,123.0, 698.77,126.8, 619.19,221.29, 610.0,231.5, 604.39,237.74, 598.97,245.3, 596.4,253.0, 591.65,267.26, 539.21,314.2, 523.0,319.6, 514.5,322.43, 509.2,323.7, 502.0,316.5, 482.06,296.56, 526.67,262.83, 533.4,246.0, 535.41,240.98, 548.95,214.34, 553.0,212.6, 611.86,187.38, 669.31,127.88, 689.6,67.0, 692.79,57.42, 699.23,44.5, 695.4,33.0, 692.76,25.09, 685.14,20.12, 677.5,27.0, 620.93,77.91, 491.51,292.2, 446.0,310.4, 439.87,312.85, 434.15,316.35, 428.0,318.4, 425.24,319.32, 421.41,318.4, 419.0,317.6, 401.98,311.93, 416.41,284.05, 425.0,274.5, 436.06,262.21, 477.51,222.68, 481.4,211.0, 484.31,202.28, 462.53,209.59, 460.0,210.6, 449.0,215.0, 414.5,267.7, 424.4,238.0, 429.47,222.8, 417.84,198.32, 399.0,204.6, 368.19,214.87, 335.45,247.88, 323.4,278.0, 321.64,282.39, 297.04,301.38, 292.0,303.4, 282.98,307.01, 275.25,314.32, 266.0,317.4, 247.51,323.56, 220.63,321.1, 213.6,300.0, 210.95,292.06, 207.69,277.74, 210.6,269.0, 213.49,260.32, 231.03,202.44, 239.0,199.6, 282.48,184.07, 320.02,156.03, 354.5,125.0, 371.68,109.54, 445.32,16.83, 374.0,40.6, 332.58,54.41, 298.52,86.81, 270.0,118.5, 261.13,128.36, 249.47,136.32, 244.4,149.0, 241.14,157.16, 225.8,171.5, 221.6,182.0, 220.55,184.63, 211.38,202.85, 210.0,203.4, 181.84,214.66, 124.12,223.31, 95.0,213.6, 90.96,212.25, 86.05,213.75, 82.0,212.4, 74.93,210.04, 68.95,204.92, 62.0,202.6, 42.62,196.14, 28.92,185.55, 22.4,166.0, 14.67,142.82, 25.5,133.71, 32.4,113.0, 55.57,43.48, 145.4,21.4, 209.0,42.6, 218.09,45.63, 253.83,65.64, 260.0,72.5, 262.37,75.13, 272.64,90.47, 275.0,88.5, 284.0,77.25, 228.48,43.99, 220.0,40.6, 201.94,33.38, 182.78,26.49, 163.0,25.5, 159.77,25.34, 156.15,27.34, 153.0,27.5, 145.77,27.86, 134.57,25.08, 127.0,27.6, 76.89,44.3, 34.45,61.85, 16.4,116.0, 7.26,143.42, 4.41,142.53, 15.4,170.0, 26.02,196.56, 52.25,208.82, 78.0,217.4, 104.73,226.31, 149.8,226.33, 176.0,217.6, 180.64,216.05, 186.34,217.95, 191.0,216.4, 195.03,215.06, 200.65,212.16, 205.0,212.6, 208.51,216.11, 172.74,304.18, 237.0,325.6, 244.25,328.02, 255.9,328.1, 264.0,325.4, 279.61,320.2, 314.29,294.03, 316.0,294.6, 321.91,296.57, 312.73,321.84, 336.0,329.6, 338.6,330.47, 343.05,331.38, 346.0,330.4, 355.36,327.28, 391.52,302.69, 395.4,293.0, 396.26,290.84, 397.45,289.35, 400.0,289.6, 408.4,298.0, 395.5,323.27, 420.0,324.5, 449.94,326.0, 478.05,288.25, 483.0,286.6, 490.27,284.18, 483.53,321.54, 513.0,329.4, 529.66,333.84, 576.59,282.51, 580.0,281.6, 580.32,281.51, 580.67,281.6, 581.0,281.6, 582.99,283.59, 578.29,315.5, 596.0,321.4, 601.95,323.38, 606.78,319.02, 612.0,318.5, 622.5,317.45, 638.93,300.21, 646.0,299.5, 647.57,299.66, 647.08,299.69, 647.6,301.0, 651.79,311.46, 650.24,324.2, 666.0,328.4, 686.34,333.82, 704.96,308.01, 719.0,302.4, 723.02,300.79, 730.81,289.6, 734.0,289.6, 734.73,290.33, 727.79,320.0, 756.0,329.4, 760.2,330.8, 762.35,326.68, 766.0,326.5, 769.12,326.34, 784.0,314.49, 784.5,317.0, 784.03,321.69, 757.44,363.02, 754.0,364.4, 729.22,374.31, 628.85,431.37, 619.4,455.0, 618.18,458.04, 613.86,459.86, 612.6,463.0, 609.54,470.65, 599.92,488.95, 602.6,497.0, 614.04,531.32, 687.71,478.79, 702.5,464.0, 717.6,448.9, 748.13,408.68, 755.6,390.0, 755.83,389.43, 775.46,360.03, 775.5,360.0, 788.66,348.16, 812.75,334.9, 829.0,328.4, 847.81,320.88, 935.34,242.16, 942.6,224.0, 943.27,222.31, 957.8,205.52, 958.0,205.5, 962.41,205.94, 964.47,218.79, 963.4,222.0, 962.67,224.18, 904.89,264.79, 906.5,297.0, 906.98,306.68, 917.35,325.48, 929.0,321.6, 951.68,314.04, 961.33,309.02, 978.0,290.5, 980.14,288.12, 982.46,280.85, 986.0,280.5, 987.75,280.85, 984.37,289.39, 984.5,292.0, 985.45,311.07, 995.51,325.23, 1016.0,318.4, 1025.88,315.11, 1051.66,287.6, 1055.0,287.6, 1060.58,293.18, 1053.37,310.87, 1062.5,320.0, 1084.29,341.79, 1117.1,294.6, 1127.0,294.6, 1129.67,297.27, 1120.51,306.99, 1118.5,309.0, 1108.7,318.8, 1043.11,404.73, 1039.4,414.0, 1037.07,419.82, 1016.82,436.79, 1016.5,440.0, 1017.06,445.6, 1036.18,439.61, 1039.0,438.4, 1041.91,437.15, 1137.64,307.77, 1158.5,289.0, 1160.3,287.38, 1163.32,287.36, 1165.0,285.5, 1173.39,276.18, 1196.09,244.96, 1207.0,240.6, 1215.68,237.13, 1245.68,207.13, 1257.0,202.6, 1258.89,201.84, 1264.07,199.86, 1264.5,202.0, 1264.5,244.78, 1188.68,262.71, 1206.4,307.0, 1208.81,313.01, 1216.86,316.4, 1223.0,316.4, 1236.89,316.4, 1261.28,297.6, 1262.0,297.6, 1266.53,302.13, 1246.58,317.59, 1255.0,320.4, 1272.54,326.25, 1276.64,303.89, 1287.0,295.6, 1289.23,295.6, 1289.78,298.28, 1292.0,298.5, 1295.07,298.19, 1309.16,272.66, 1312.0,269.5, 1322.67,257.64, 1390.13,191.77, 1401.5,202.0, 1417.51,216.41, 1327.5,270.71, 1340.6,310.0, 1342.2,314.8, 1349.32,319.27, 1354.0,319.5, 1374.26,320.51, 1392.77,307.26, 1407.5,294.0, 1410.57,291.23, 1421.99,276.83, 1424.0,278.5, 1426.66,281.82, 1415.7,300.88, 1432.5,316.0, 1442.8,325.27, 1457.76,311.29, 1458.5,315.0, 1458.5,319.55, 1439.47,344.24, 1436.0,345.4, 1384.73,362.49, 1347.66,389.86, 1307.5,426.0, 1295.95,436.4, 1228.44,510.18, 1257.0,521.6, 1271.93,527.57, 1272.05,526.92, 1288.0,521.6, 1337.64,505.05, 1385.45,443.45, 1388.0,442.6, 1393.45,440.78, 1400.91,443.43, 1407.0,441.4, 1415.6,438.53, 1425.4,439.27, 1434.0,436.4, 1472.66,423.51, 1514.18,407.25, 1528.6,364.0, 1543.02,320.74, 1480.16,340.22, 1462.0,338.4Z
M1367.0,187.5 C1362.16,186.53, 1375.63,173.92, 1376.4,172.0, 1377.16,170.1, 1410.47,122.03, 1412.5,120.0, 1421.43,111.07, 1504.5,-9.78, 1504.5,27.0, 1504.5,41.3, 1496.49,52.28, 1491.4,65.0, 1489.0,70.99, 1481.0,75.0, 1478.6,81.0, 1470.53,101.17, 1404.14,168.14, 1383.0,176.6, 1377.57,178.77, 1373.07,186.89, 1367.0,187.5Z
M687.0,29.5 C690.3,29.83, 690.64,40.19, 690.5,43.0, 688.68,79.46, 653.16,124.66, 629.0,151.5, 619.15,162.45, 578.25,198.27, 565.0,199.6, 562.13,201.51, 565.07,196.43, 566.0,195.5, 569.41,192.09, 585.61,169.47, 587.4,165.0, 594.98,146.06, 670.51,31.15, 687.0,29.5Z
M664.6,191.0 C664.6,186.36, 695.84,154.9, 699.4,146.0, 704.01,134.48, 766.92,46.58, 777.5,36.0, 786.96,26.54, 800.37,30.09, 795.4,45.0, 794.22,48.54, 790.81,51.38, 789.6,55.0, 776.55,94.15, 741.89,132.85, 709.5,162.0, 706.0,165.15, 700.86,166.98, 697.5,170.0, 691.21,175.67, 666.05,192.45, 664.6,191.0Z
M244.0,190.4 C240.25,186.65, 266.53,158.67, 269.6,151.0, 271.64,145.91, 281.13,134.93, 285.5,131.0, 287.69,129.03, 292.26,127.65, 293.4,125.0, 300.67,108.05, 383.52,28.52, 397.0,43.5, 399.78,46.59, 396.75,58.95, 395.4,63.0, 384.4,95.99, 307.19,163.72, 275.0,176.6, 265.54,180.38, 254.87,191.49, 244.0,190.4Z
M751.5,175.0 C750.75,175.0, 752.95,174.5, 753.5,174.0, 770.75,158.47, 735.5,149.19, 735.5,168.0, 735.5,174.68, 745.12,175.74, 750.0,175.5, 750.53,175.47, 752.03,175.0, 751.5,175.0Z
M832.4,207.0 C832.92,212.21, 836.76,216.72, 836.5,222.0, 836.15,228.93, 830.48,237.08, 835.4,242.0, 835.4,264.07, 768.94,338.44, 748.5,318.0, 745.84,315.34, 743.22,312.13, 744.6,308.0, 752.18,285.26, 819.17,193.77, 832.4,207.0Z
M1003.0,314.4 C999.5,314.4, 997.64,312.1, 996.4,309.0, 988.0,288.0, 1028.57,254.43, 1042.0,239.5, 1044.52,236.7, 1061.96,211.61, 1062.0,211.6, 1086.19,203.54, 1089.07,215.99, 1082.4,236.0, 1081.59,238.42, 1077.2,238.31, 1076.6,240.0, 1075.83,242.15, 1077.12,244.83, 1076.4,247.0, 1070.31,265.26, 1024.49,314.4, 1003.0,314.4Z
M342.0,325.4 C287.57,325.4, 401.77,209.19, 412.0,212.6, 417.83,214.54, 418.25,220.99, 418.5,226.0, 419.38,243.51, 412.17,257.19, 405.4,273.0, 401.24,282.71, 354.22,325.4, 342.0,325.4Z
M1393.0,436.4 C1389.06,432.46, 1404.98,419.54, 1406.4,416.0, 1409.2,409.0, 1416.95,398.11, 1422.0,392.5, 1427.59,386.29, 1450.25,348.18, 1455.0,346.6, 1466.65,342.72, 1492.85,336.35, 1505.0,340.4, 1508.15,341.45, 1521.72,339.95, 1524.4,348.0, 1530.71,366.93, 1497.81,405.13, 1479.0,411.4, 1454.88,419.44, 1417.59,438.86, 1393.0,436.4Z
M1396.0,398.6 C1395.95,398.65, 1392.02,409.56, 1391.4,411.0, 1390.1,414.04, 1385.84,417.35, 1383.0,420.5, 1368.4,436.73, 1370.68,438.12, 1348.0,428.4, 1346.56,427.78, 1346.92,424.52, 1346.0,423.6, 1344.61,423.46, 1336.13,426.53, 1338.0,428.4, 1346.55,438.66, 1359.66,437.33, 1365.5,442.0, 1370.2,447.64, 1306.21,519.6, 1271.0,519.6, 1214.0,519.6, 1337.48,398.71, 1349.0,394.6, 1357.7,391.49, 1364.43,383.03, 1373.0,379.6, 1389.78,372.89, 1405.33,363.27, 1422.0,356.6, 1422.86,356.26, 1430.3,353.43, 1430.3,354.0, 1430.3,360.26, 1404.77,385.58, 1401.4,394.0, 1400.47,396.33, 1398.44,398.36, 1396.0,398.6Z
M619.0,504.4 C594.13,504.4, 618.79,461.62, 627.0,452.5, 648.35,428.78, 714.69,384.17, 744.0,374.4, 749.2,372.67, 751.97,369.58, 749.4,376.0, 748.03,379.42, 742.99,381.52, 741.6,385.0, 736.61,397.48, 717.5,419.74, 714.6,427.0, 704.3,452.74, 647.19,504.4, 619.0,504.4Z
"/></svg>