<?xml version="1.0" encoding="utf-8" ?>
<svg xmlns="http://www.w3.org/2000/svg" xmlns:ev="http://www.w3.org/2001/xml-events" xmlns:xlink="http://www.w3.org/1999/xlink" baseProfile="tiny" height="961" version="1.2" width="2917">
<defs/>
<path d="
M2419.67,824.12 C2421.67,821.68, 2422.76,818.93, 2424.26,816.16, 2437.82,812.16, 2450.01,812.72, 2463.38,812.45, 2469.12,805.5, 2475.72,787.39, 2481.23,778.23, 2482.06,776.85, 2480.93,774.98, 2481.89,773.64, 2483.95,770.74, 2497.78,750.4, 2498.74,749.8, 2500.24,748.85, 2504.16,749.26, 2505.89,748.73, 2508.47,742.93, 2515.03,733.97, 2518.66,726.9, 2522.7,719.01, 2529.92,712.68, 2535.83,706.66, 2543.86,698.49, 2555.36,677.85, 2561.72,671.77, 2565.22,668.43, 2565.94,665.31, 2567.56,661.16, 2568.35,659.14, 2574.06,656.37, 2575.76,654.73, 2579.63,651.02, 2611.39,612.51, 2612.3,609.58, 2616.25,607.43, 2614.79,607.27, 2616.58,604.01, 2617.17,602.91, 2621.69,602.34, 2623.12,600.35, 2630.48,590.16, 2644.8,576.74, 2656.45,571.28, 2660.46,564.71, 2683.89,549.34, 2690.19,552.73, 2707.07,561.81, 2675.99,597.8, 2673.46,604.8, 2671.49,610.26, 2605.31,686.97, 2592.69,710.86, 2590.04,715.87, 2590.65,722.25, 2588.37,727.07, 2586.18,731.71, 2582.16,735.11, 2580.55,740.2, 2578.74,745.95, 2578.55,751.48, 2575.78,757.13, 2576.31,758.04, 2576.51,758.93, 2577.13,759.74, 2576.5,781.53, 2577.63,791.11, 2599.31,802.03, 2601.78,800.79, 2612.67,802.5, 2616.29,802.5, 2621.18,800.46, 2625.98,797.56, 2632.03,797.46, 2643.28,786.25, 2658.15,779.38, 2669.48,768.66, 2673.42,764.92, 2694.58,744.26, 2697.17,740.29, 2705.96,726.82, 2731.03,695.53, 2736.33,685.12, 2737.43,682.95, 2737.39,680.2, 2738.68,677.87, 2744.0,668.32, 2745.76,672.65, 2745.42,658.99, 2740.94,660.11, 2736.69,665.45, 2734.02,669.51, 2734.87,671.6, 2735.0,671.37, 2737.08,671.89, 2733.75,672.65, 2735.21,672.12, 2732.65,673.31, 2724.89,690.38, 2699.56,712.96, 2691.41,730.02, 2688.92,735.24, 2679.25,741.82, 2675.06,746.44, 2673.19,748.51, 2671.91,752.37, 2670.23,754.19, 2664.41,760.53, 2656.47,764.02, 2650.18,770.32, 2647.81,770.61, 2646.98,770.62, 2644.6,771.66, 2643.17,773.85, 2642.64,774.88, 2640.8,777.02, 2626.05,781.23, 2608.54,801.04, 2593.35,785.85, 2591.07,783.57, 2588.53,778.62, 2589.55,775.23, 2591.88,767.49, 2597.04,754.78, 2601.96,748.55, 2607.03,742.14, 2623.86,727.74, 2630.81,720.68, 2667.25,683.69, 2702.19,636.01, 2706.52,582.7, 2707.91,565.59, 2710.36,533.51, 2682.74,541.45, 2666.44,546.14, 2639.55,564.58, 2628.05,577.46, 2607.09,600.93, 2585.46,621.35, 2566.1,647.38, 2563.5,650.88, 2559.59,652.49, 2556.73,655.81, 2552.81,660.37, 2553.13,664.67, 2548.06,667.81, 2545.25,672.45, 2545.92,674.6, 2538.66,672.01, 2543.82,665.42, 2541.74,647.72, 2545.66,639.89, 2554.87,621.52, 2564.43,560.56, 2537.24,552.45, 2525.24,548.87, 2532.67,544.46, 2516.92,550.44, 2513.42,551.77, 2508.35,549.04, 2504.94,550.62, 2484.87,559.93, 2475.74,578.82, 2460.99,589.39, 2454.32,602.71, 2445.82,618.42, 2434.17,627.94, 2433.58,629.64, 2433.48,630.74, 2433.12,632.5, 2427.06,635.83, 2423.28,645.39, 2419.0,650.49, 2417.73,652.0, 2415.44,652.05, 2413.84,653.66, 2407.49,660.03, 2355.72,711.81, 2353.57,687.6, 2353.36,685.24, 2368.45,659.99, 2370.36,656.09, 2372.71,651.26, 2383.4,607.92, 2382.46,603.43, 2381.55,599.03, 2378.1,594.8, 2376.86,590.24, 2376.65,589.47, 2379.77,581.12, 2380.5,579.46, 2379.55,577.98, 2378.98,576.4, 2378.2,574.78, 2379.64,572.07, 2381.73,570.16, 2383.07,567.48, 2377.79,558.66, 2374.72,548.85, 2366.1,542.67, 2362.65,540.2, 2357.59,541.91, 2354.0,540.43, 2332.93,531.76, 2288.64,553.53, 2273.27,568.24, 2272.05,569.4, 2269.63,574.09, 2268.89,574.44, 2266.72,575.47, 2264.31,576.23, 2261.93,576.77, 2254.96,586.63, 2241.98,603.99, 2236.28,614.18, 2235.32,615.88, 2233.46,616.31, 2232.66,617.9, 2230.09,623.02, 2227.33,633.72, 2220.4,634.61, 2213.09,658.3, 2192.55,678.99, 2175.43,695.08, 2171.86,698.44, 2173.51,700.82, 2168.1,703.12, 2167.13,706.64, 2108.28,767.41, 2104.06,769.38, 2091.03,775.47, 2081.46,784.16, 2067.94,789.44, 2062.37,791.61, 2052.1,785.6, 2048.39,781.89, 2016.26,749.76, 2068.48,701.26, 2079.54,673.22, 2080.72,670.25, 2086.05,666.34, 2087.46,662.76, 2095.59,642.07, 2143.43,591.96, 2146.44,584.93, 2150.08,576.45, 2157.02,567.97, 2162.16,560.31, 2164.31,557.1, 2163.66,550.68, 2165.15,546.91, 2161.06,540.25, 2156.48,541.16, 2149.35,539.87, 2119.79,534.51, 2088.07,599.15, 2072.05,619.43, 2066.14,626.92, 2037.54,657.66, 2035.56,662.02, 2033.03,667.62, 1989.42,727.18, 1985.1,730.32, 1978.02,735.48, 1971.13,742.37, 1964.45,749.05, 1963.24,750.26, 1963.59,753.11, 1962.93,753.43, 1952.99,758.22, 1919.66,792.58, 1909.34,780.75, 1893.87,779.57, 1890.5,759.08, 1890.5,746.81, 1890.5,745.33, 1890.25,745.91, 1892.38,746.75, 1889.99,741.56, 1889.65,740.45, 1888.05,735.21, 1888.43,735.4, 1888.8,735.6, 1889.18,735.79, 1887.53,733.67, 1889.25,729.76, 1889.48,727.28, 1893.42,685.72, 1940.69,636.77, 1960.65,598.9, 1962.47,595.45, 1968.01,594.31, 1969.42,591.01, 1976.98,573.4, 1993.85,559.09, 2002.64,540.92, 2006.61,532.71, 2018.14,525.45, 2022.34,517.11, 2030.38,501.14, 2042.2,488.31, 2052.19,473.28, 2059.17,462.77, 2072.33,436.25, 2085.72,435.52, 2091.84,435.19, 2101.23,437.35, 2107.97,437.56, 2126.1,419.23, 2139.36,433.45, 2144.41,422.03, 2145.46,419.64, 2145.24,415.23, 2145.97,412.55, 2131.43,402.88, 2119.36,418.15, 2097.82,407.5, 2106.67,379.86, 2157.04,321.9, 2156.44,297.5, 2137.05,288.51, 2126.72,291.23, 2114.01,306.48, 2109.85,311.47, 2105.37,315.16, 2102.37,321.07, 2100.3,325.16, 2095.55,327.88, 2092.88,331.64, 2091.93,332.99, 2093.06,334.85, 2092.22,336.24, 2085.45,347.42, 2051.59,406.11, 2045.45,411.04, 2036.26,418.41, 2015.16,419.83, 2003.94,415.56, 2000.09,414.1, 1997.36,417.43, 1994.2,417.49, 1988.14,417.59, 1983.65,407.47, 1978.64,417.92, 1976.53,422.32, 1986.62,424.68, 1988.58,426.07, 2001.5,435.2, 2027.64,432.7, 2028.27,436.9, 2029.46,444.85, 1999.03,480.54, 1994.65,488.91, 1991.05,495.78, 1988.22,503.17, 1984.31,510.14, 1982.3,513.72, 1978.48,516.33, 1975.94,519.58, 1970.17,526.97, 1961.01,542.6, 1956.65,550.91, 1952.87,558.11, 1941.09,579.54, 1937.15,585.33, 1920.72,609.45, 1897.01,629.59, 1884.37,654.08, 1882.07,658.53, 1874.72,663.84, 1871.34,670.11, 1870.36,671.93, 1863.71,675.07, 1862.39,676.11, 1858.91,678.84, 1857.88,682.3, 1856.45,685.87, 1854.36,691.1, 1846.91,695.71, 1843.68,699.89, 1842.31,701.67, 1844.02,702.59, 1843.37,704.07, 1841.67,707.92, 1831.28,712.92, 1827.93,714.63, 1822.97,717.16, 1818.74,725.78, 1815.31,728.16, 1802.61,736.95, 1757.33,778.95, 1750.21,781.54, 1745.93,783.09, 1744.76,789.44, 1741.13,791.32, 1737.38,793.26, 1732.5,793.01, 1728.48,794.82, 1716.35,789.47, 1706.67,792.63, 1702.54,775.65, 1698.91,760.72, 1756.91,663.96, 1769.9,657.7, 1771.0,653.76, 1773.52,650.98, 1776.39,648.11, 1792.04,632.46, 1801.25,617.08, 1814.02,601.46, 1820.06,594.08, 1851.96,556.03, 1840.13,546.71, 1838.59,545.49, 1832.58,544.81, 1831.25,544.45, 1801.86,536.4, 1777.73,580.9, 1766.41,601.01, 1765.57,602.51, 1762.76,603.91, 1761.68,605.87, 1749.15,628.64, 1726.25,647.76, 1715.37,669.07, 1710.1,679.4, 1653.84,736.77, 1641.95,748.55, 1640.41,750.07, 1638.18,754.62, 1637.04,755.38, 1632.86,758.17, 1627.87,759.89, 1623.67,762.86, 1616.14,768.18, 1606.67,780.57, 1594.82,784.45, 1588.49,786.51, 1580.85,779.62, 1576.08,776.64, 1566.43,770.61, 1565.49,769.07, 1562.55,758.74, 1558.25,743.64, 1599.72,677.88, 1611.55,665.95, 1611.71,665.79, 1651.72,610.62, 1652.68,608.88, 1655.03,604.58, 1659.37,602.61, 1661.27,597.76, 1666.81,593.43, 1668.86,589.58, 1671.55,583.09, 1674.47,576.08, 1690.78,570.71, 1687.04,554.09, 1674.84,548.92, 1665.83,549.78, 1654.19,553.55, 1644.03,556.85, 1611.25,603.44, 1603.88,613.65, 1599.42,619.82, 1586.18,642.87, 1582.25,647.18, 1573.47,656.78, 1518.42,727.63, 1516.95,728.43, 1504.02,735.47, 1492.37,750.58, 1481.6,760.46, 1478.91,762.93, 1456.94,777.2, 1452.25,780.21, 1449.7,781.85, 1430.93,792.26, 1429.44,792.47, 1413.73,794.75, 1404.94,786.32, 1398.21,773.36, 1399.79,769.34, 1400.2,765.14, 1401.46,760.88, 1395.49,754.93, 1426.85,711.71, 1430.64,703.91, 1432.85,699.39, 1439.91,696.19, 1441.44,691.87, 1446.95,676.36, 1459.32,665.99, 1464.54,652.17, 1466.73,646.39, 1481.12,631.62, 1485.21,625.25, 1488.69,619.82, 1511.23,583.73, 1512.44,580.95, 1512.93,579.84, 1513.07,576.52, 1513.8,575.78, 1520.95,568.5, 1531.76,565.58, 1540.23,560.23, 1546.25,556.43, 1569.58,537.22, 1573.25,531.21, 1585.46,511.2, 1633.27,472.92, 1644.57,451.07, 1647.97,444.49, 1670.75,428.04, 1675.26,420.2, 1678.85,413.95, 1681.46,406.0, 1685.64,399.94, 1691.36,391.62, 1701.73,384.83, 1705.44,374.91, 1708.53,366.65, 1719.99,340.25, 1727.45,336.43, 1727.59,329.51, 1746.64,284.97, 1751.23,279.14, 1750.93,278.45, 1751.13,278.67, 1750.76,278.36, 1756.44,265.75, 1757.48,252.62, 1761.59,239.41, 1761.38,237.85, 1760.59,236.85, 1760.15,235.31, 1765.22,225.07, 1758.26,204.53, 1747.36,199.3, 1739.86,201.78, 1729.85,208.22, 1724.93,214.59, 1694.3,254.26, 1664.6,296.4, 1636.8,338.73, 1633.95,343.09, 1616.97,375.5, 1615.19,377.24, 1602.89,389.24, 1590.98,405.49, 1584.44,420.92, 1581.61,427.61, 1572.61,432.27, 1569.56,439.02, 1560.07,460.04, 1537.8,481.17, 1525.3,503.15, 1521.31,510.17, 1514.61,514.82, 1510.69,521.86, 1501.24,538.84, 1490.17,552.92, 1477.99,567.52, 1469.81,577.33, 1442.12,624.41, 1435.34,637.11, 1434.32,639.02, 1385.55,684.08, 1383.08,685.36, 1374.29,689.93, 1359.24,698.36, 1352.16,704.27, 1349.77,706.25, 1335.52,705.82, 1330.89,708.25, 1328.01,707.59, 1320.32,705.23, 1319.54,701.58, 1316.02,685.1, 1385.78,586.98, 1350.87,558.3, 1349.28,556.99, 1348.31,554.3, 1346.38,552.9, 1340.07,548.33, 1317.94,546.46, 1309.6,547.53, 1307.01,547.86, 1262.66,567.36, 1260.6,568.92, 1256.34,572.15, 1252.33,576.43, 1248.29,579.17, 1218.45,599.48, 1181.18,640.24, 1162.27,672.18, 1160.24,675.62, 1154.77,679.51, 1153.56,683.18, 1150.39,692.71, 1144.24,711.91, 1139.26,720.19, 1136.77,724.35, 1131.2,727.78, 1128.01,731.5, 1112.23,749.86, 1098.8,753.0, 1078.82,764.72, 1073.04,768.11, 1068.33,773.32, 1062.09,776.36, 1056.19,779.22, 1022.89,792.43, 1017.19,794.54, 1013.93,795.75, 1014.41,797.37, 1009.87,798.5, 1004.5,799.84, 996.47,799.5, 991.0,799.5, 987.86,799.26, 990.71,797.08, 992.06,796.56, 1002.14,792.72, 1014.22,788.07, 1023.68,781.85, 1039.69,771.31, 1073.56,740.36, 1082.33,723.12, 1087.24,713.48, 1089.84,702.11, 1094.38,692.06, 1100.11,679.36, 1094.73,656.76, 1099.58,646.17, 1096.26,642.49, 1099.6,638.72, 1098.45,635.18, 1097.17,631.29, 1090.55,582.88, 1090.57,578.5, 1090.57,577.61, 1093.54,573.87, 1093.78,573.41, 1093.31,572.12, 1092.69,569.38, 1091.75,569.93, 1098.29,552.26, 1131.12,513.63, 1141.59,489.97, 1143.15,486.46, 1161.15,470.54, 1163.01,469.41, 1166.2,467.48, 1180.53,437.75, 1178.44,432.09, 1176.83,427.73, 1170.09,426.65, 1165.9,426.49, 1140.37,425.53, 1122.66,442.34, 1106.95,462.57, 1105.55,464.37, 1106.34,467.37, 1105.24,469.22, 1101.26,475.93, 1095.42,481.35, 1092.56,489.09, 1091.2,492.76, 1091.8,499.42, 1090.25,502.21, 1083.35,514.64, 1079.53,527.6, 1074.57,540.02, 1073.02,543.88, 1074.29,561.71, 1072.44,566.89, 1069.33,575.59, 993.82,664.53, 987.81,666.45, 984.03,667.65, 958.02,663.8, 946.75,670.79, 930.54,680.83, 908.31,689.5, 899.63,707.93, 898.81,709.67, 899.27,712.38, 898.43,713.98, 897.55,715.63, 894.87,715.15, 893.16,715.9, 893.91,716.68, 894.67,717.45, 895.43,718.22, 882.39,740.16, 889.82,752.71, 888.44,756.84, 886.62,762.31, 861.43,777.19, 855.18,779.54, 852.58,780.52, 851.43,784.64, 848.77,785.45, 826.48,792.25, 808.04,803.2, 785.07,792.63, 747.87,775.5, 766.38,739.95, 781.7,712.85, 783.2,710.19, 787.14,708.77, 788.43,706.01, 796.31,689.11, 811.48,697.78, 818.36,690.17, 829.81,689.77, 858.16,683.69, 867.23,678.23, 882.5,669.04, 894.11,656.41, 908.44,645.05, 910.37,643.52, 929.85,626.63, 931.23,625.2, 937.24,618.95, 938.81,609.69, 945.45,603.05, 945.52,599.98, 945.51,598.64, 946.67,595.66, 958.11,586.36, 960.53,561.91, 947.03,555.59, 909.4,537.98, 878.77,571.92, 849.24,583.54, 848.01,584.02, 847.82,586.5, 847.02,587.46, 844.98,589.93, 840.38,591.23, 837.78,592.76, 835.85,593.91, 816.76,611.53, 815.03,613.48, 800.86,629.5, 782.03,645.59, 772.6,664.96, 770.48,669.32, 767.71,675.46, 763.03,677.56, 755.38,680.99, 753.42,690.4, 749.74,696.96, 744.97,698.82, 697.63,747.66, 696.89,749.97, 694.65,750.99, 693.75,751.44, 691.42,752.01, 689.33,756.11, 686.15,758.17, 681.74,758.68, 675.77,768.55, 653.49,778.45, 643.19,784.27, 639.32,786.45, 621.89,790.55, 615.01,793.43, 608.94,795.96, 588.6,788.27, 582.93,785.37, 577.89,782.79, 575.87,775.1, 572.57,770.93, 572.57,770.26, 575.24,757.75, 575.7,756.85, 578.75,750.9, 589.05,725.62, 592.18,722.33, 594.29,720.11, 598.19,716.8, 599.41,714.03, 603.2,705.42, 620.74,684.73, 628.33,677.17, 636.66,668.87, 641.99,659.27, 648.87,649.66, 652.21,644.98, 657.55,641.53, 661.0,637.49, 673.48,622.87, 679.76,604.08, 688.31,587.14, 691.09,581.65, 692.64,539.63, 690.44,533.15, 688.12,526.32, 684.38,520.88, 682.68,513.59, 677.76,512.3, 673.88,500.84, 678.74,497.8, 685.29,493.7, 706.33,490.14, 708.79,487.73, 710.38,487.61, 748.4,475.78, 749.29,475.18, 753.41,472.43, 756.6,468.37, 760.77,465.77, 764.69,463.32, 769.8,462.77, 774.14,460.36, 784.41,454.65, 790.38,443.82, 802.82,440.95, 810.41,431.65, 820.09,426.11, 828.47,417.74, 832.36,413.85, 853.15,386.11, 858.09,379.39, 861.05,375.36, 871.19,347.02, 876.26,338.2, 880.26,331.23, 878.58,316.38, 883.14,309.34, 885.26,306.06, 883.43,304.24, 887.62,301.72, 886.5,299.64, 886.38,298.04, 885.25,295.93, 885.39,295.7, 887.35,292.59, 887.27,291.91, 886.68,286.79, 886.43,253.04, 886.43,253.04, 884.25,246.83, 877.34,209.02, 882.02,206.57, 894.45,200.1, 907.9,193.81, 921.65,188.47, 923.17,187.88, 924.02,185.33, 926.08,184.56, 933.66,181.72, 943.98,179.31, 952.16,176.56, 958.79,174.32, 968.61,177.21, 974.12,172.24, 971.28,157.54, 959.69,172.98, 952.47,167.97, 944.1,162.17, 876.73,197.38, 874.76,196.22, 874.08,195.82, 855.77,146.58, 853.44,141.08, 850.84,134.92, 842.1,128.52, 840.58,125.02, 839.21,121.87, 838.94,117.94, 837.31,114.86, 832.8,106.3, 803.71,74.13, 795.81,71.55, 794.42,71.1, 792.32,72.11, 791.02,71.43, 785.88,68.72, 781.21,62.46, 774.76,60.55, 754.96,54.69, 735.59,46.82, 714.25,45.52, 710.89,45.31, 702.5,46.07, 699.73,45.13, 691.68,42.39, 681.77,43.77, 673.05,43.5, 643.68,42.58, 609.67,43.05, 583.13,56.32, 578.3,58.73, 568.27,58.14, 562.92,60.64, 551.26,66.07, 539.89,73.44, 528.13,77.56, 525.62,78.44, 525.61,81.8, 523.8,82.44, 506.72,88.51, 472.96,116.14, 457.59,127.92, 435.35,144.98, 355.71,232.82, 341.75,256.79, 336.74,265.4, 313.3,306.17, 307.31,310.16, 303.27,312.85, 294.17,315.42, 289.32,315.53, 278.74,324.62, 264.01,326.84, 251.98,332.59, 248.17,334.4, 245.21,340.13, 241.11,342.34, 200.1,364.4, 169.16,414.72, 144.8,453.74, 137.53,465.38, 122.84,502.46, 115.64,517.92, 113.47,522.57, 114.59,528.91, 112.27,533.19, 101.85,552.38, 100.79,590.56, 100.5,612.51, 100.38,621.92, 95.97,634.02, 99.57,642.98, 101.07,646.74, 102.99,652.86, 103.3,656.94, 105.04,679.53, 103.27,691.74, 113.64,713.09, 114.1,714.04, 125.13,727.49, 127.22,730.75, 133.77,741.02, 143.62,753.75, 152.93,760.35, 162.87,767.4, 161.12,766.92, 170.8,776.23, 172.97,778.31, 176.77,778.21, 179.24,779.78, 193.19,788.62, 202.75,797.75, 220.42,801.46, 222.22,801.84, 246.74,803.8, 247.82,803.45, 249.14,803.02, 251.8,800.44, 253.22,800.83, 273.51,806.37, 334.11,785.4, 350.39,773.09, 362.57,763.87, 374.95,759.66, 383.11,753.31, 387.25,750.09, 387.44,746.42, 393.64,744.97, 396.33,739.51, 408.09,728.71, 414.22,728.47, 416.19,725.15, 418.08,721.67, 420.33,718.61, 435.64,709.06, 449.84,698.11, 462.47,684.52, 473.37,672.77, 485.85,650.23, 501.41,643.66, 507.25,633.02, 518.09,625.66, 525.31,616.12, 534.12,604.45, 587.65,532.08, 591.65,523.91, 598.07,510.78, 639.78,513.05, 648.05,509.39, 664.07,502.3, 669.2,517.63, 675.27,528.81, 687.69,551.7, 651.29,587.36, 639.85,603.68, 634.22,611.72, 612.98,643.15, 606.4,646.07, 605.4,649.09, 603.36,654.05, 601.25,656.26, 586.84,671.29, 586.14,684.77, 577.26,700.2, 575.04,704.06, 571.57,706.76, 569.64,710.92, 563.64,723.82, 557.15,762.9, 560.54,776.65, 561.7,781.33, 567.29,782.08, 569.3,785.85, 570.44,787.98, 571.02,790.42, 572.3,792.75, 573.36,793.8, 574.82,793.52, 576.26,793.63, 580.52,801.04, 594.9,801.29, 602.22,805.42, 608.18,804.57, 614.25,806.03, 620.64,804.46, 653.49,796.38, 682.17,777.42, 707.52,754.97, 712.33,750.71, 737.6,720.21, 742.42,723.94, 745.15,726.04, 743.37,750.16, 744.55,754.7, 745.8,759.51, 745.9,765.85, 747.56,769.97, 750.24,776.57, 760.64,796.37, 768.01,799.43, 777.36,803.32, 787.24,806.62, 796.16,811.51, 801.1,809.21, 807.49,810.66, 812.91,810.5, 822.94,810.2, 837.14,801.86, 847.62,799.46, 856.05,797.53, 864.65,789.44, 872.13,785.32, 873.24,784.71, 873.37,782.56, 874.48,783.06, 875.41,783.57, 875.74,783.61, 876.58,782.93, 892.77,771.02, 893.35,768.71, 904.23,787.77, 904.59,788.4, 903.3,789.32, 903.76,789.87, 907.77,794.65, 918.71,804.85, 925.35,806.46, 936.13,809.06, 989.96,814.24, 998.79,811.45, 1007.91,808.57, 1017.04,806.13, 1026.72,803.45, 1031.98,802.0, 1042.04,793.25, 1044.19,792.55, 1050.25,790.58, 1057.32,790.45, 1063.19,787.27, 1070.02,783.56, 1078.37,774.67, 1085.22,772.55, 1102.17,767.32, 1117.18,757.32, 1129.74,744.76, 1131.67,742.83, 1133.1,740.1, 1136.41,740.53, 1142.38,741.31, 1141.88,753.85, 1141.4,757.39, 1148.08,777.19, 1156.54,780.68, 1165.86,797.19, 1183.02,806.77, 1174.5,800.95, 1183.94,804.56, 1216.32,816.95, 1256.04,771.4, 1275.2,751.3, 1280.05,746.22, 1292.46,738.81, 1295.38,733.06, 1304.1,715.88, 1303.83,720.53, 1319.37,723.5, 1329.99,725.53, 1346.23,721.8, 1356.04,717.4, 1362.93,714.31, 1397.39,691.11, 1402.55,685.95, 1403.5,685.0, 1407.85,679.44, 1409.39,681.97, 1411.4,685.26, 1387.64,736.56, 1387.5,746.54, 1387.35,757.29, 1383.37,771.91, 1388.3,781.8, 1389.91,785.03, 1393.5,787.1, 1395.21,789.75, 1401.9,800.08, 1407.77,800.49, 1418.59,801.57, 1421.78,801.89, 1424.73,806.15, 1429.84,804.44, 1437.9,801.75, 1474.87,781.27, 1480.57,775.92, 1484.15,772.56, 1486.65,766.04, 1490.82,763.72, 1496.89,760.36, 1516.29,746.66, 1519.61,739.95, 1521.79,735.56, 1542.59,714.89, 1545.4,712.85, 1545.78,707.59, 1549.63,702.09, 1555.32,702.66, 1555.93,703.35, 1557.85,704.47, 1557.43,705.86, 1552.11,723.39, 1546.89,740.89, 1551.46,760.37, 1552.65,765.48, 1550.86,769.51, 1554.86,775.33, 1558.04,779.96, 1580.13,792.68, 1586.47,796.52, 1591.64,796.49, 1603.34,793.83, 1607.29,791.18, 1627.45,777.66, 1673.76,735.74, 1687.25,717.39, 1690.06,719.4, 1694.81,703.62, 1700.1,707.68, 1709.67,715.02, 1666.16,779.17, 1710.06,799.62, 1711.97,800.51, 1712.74,803.31, 1714.92,804.36, 1719.9,806.77, 1735.31,808.03, 1740.23,805.24, 1753.87,797.49, 1794.55,758.32, 1795.9,757.65, 1797.51,756.86, 1799.65,757.11, 1801.47,756.27, 1804.46,751.14, 1853.31,706.26, 1853.43,706.01, 1857.32,697.67, 1869.25,690.66, 1871.44,684.83, 1872.14,682.95, 1880.93,665.79, 1884.44,675.08, 1887.13,682.2, 1877.69,703.02, 1877.65,710.0, 1877.61,718.34, 1876.5,726.84, 1876.5,735.61, 1876.5,737.1, 1876.75,736.51, 1874.58,735.66, 1877.55,743.37, 1880.48,750.26, 1877.51,757.69, 1882.32,772.21, 1891.01,781.51, 1901.27,791.77, 1909.59,789.55, 1917.41,794.37, 1925.63,792.46, 1939.83,789.16, 1986.36,745.16, 1996.55,732.95, 2001.59,726.91, 2033.15,682.49, 2036.91,680.65, 2047.97,675.23, 2032.91,707.11, 2032.56,708.16, 2027.85,722.13, 2022.55,762.06, 2028.62,775.06, 2034.87,788.45, 2054.69,804.76, 2070.94,798.44, 2072.69,797.76, 2074.1,795.53, 2075.89,794.66, 2079.74,792.8, 2085.84,793.1, 2089.98,791.43, 2093.28,790.11, 2098.97,782.5, 2104.86,780.44, 2114.74,776.99, 2169.53,717.58, 2182.46,706.05, 2193.05,696.6, 2186.38,741.03, 2185.04,743.67, 2186.48,749.27, 2186.49,753.01, 2184.85,758.56, 2186.12,762.82, 2186.1,778.89, 2186.6,780.03, 2193.42,795.77, 2204.6,804.55, 2221.19,809.0, 2224.27,808.34, 2225.1,807.2, 2227.82,805.75, 2232.7,806.98, 2233.32,804.46, 2237.39,803.54, 2257.77,798.93, 2267.14,777.83, 2285.9,769.87, 2287.43,764.28, 2307.99,744.05, 2313.14,741.19, 2316.29,735.65, 2321.05,733.45, 2324.91,729.44, 2328.55,725.68, 2329.18,721.93, 2331.95,717.63, 2336.96,716.64, 2337.02,705.63, 2342.02,703.57, 2349.65,700.42, 2365.46,710.0, 2372.17,706.28, 2379.51,702.22, 2391.77,690.08, 2400.92,685.44, 2401.57,685.1, 2403.15,681.35, 2404.16,680.34, 2414.27,670.23, 2448.53,638.75, 2449.56,625.16, 2450.55,623.93, 2451.9,624.99, 2453.17,624.28, 2454.89,623.33, 2454.04,621.47, 2455.24,620.27, 2461.07,614.42, 2470.34,608.85, 2472.46,599.62, 2472.88,597.77, 2472.75,595.27, 2473.86,593.66, 2476.87,589.3, 2481.29,587.89, 2484.45,583.73, 2485.04,582.95, 2484.08,581.53, 2484.88,580.65, 2513.82,548.76, 2553.7,558.18, 2538.58,593.98, 2536.02,600.04, 2537.26,608.74, 2528.18,618.33, 2520.74,626.18, 2512.13,655.27, 2505.15,665.32, 2497.47,676.39, 2489.59,687.2, 2482.91,698.97, 2482.85,699.63, 2483.53,700.05, 2483.95,700.53, 2471.24,725.35, 2454.94,746.95, 2438.09,769.39, 2435.5,772.83, 2429.52,774.69, 2427.6,778.96, 2422.74,789.76, 2403.44,804.76, 2395.49,814.63, 2401.65,821.92, 2401.57,827.22, 2419.67,824.12Z
M111.14,631.29 C112.41,628.85, 112.39,628.35, 113.1,625.85, 110.58,615.51, 117.13,547.24, 121.56,535.11, 124.11,528.12, 126.84,522.67, 127.57,515.4, 127.87,512.4, 131.92,509.77, 133.28,507.17, 135.58,502.82, 135.42,496.25, 137.68,491.87, 142.7,482.15, 156.26,460.74, 156.57,450.59, 160.86,448.55, 163.15,445.43, 163.68,440.82, 164.81,439.69, 200.63,390.71, 202.65,386.9, 206.49,379.68, 223.14,370.28, 227.42,360.63, 230.02,360.47, 260.02,344.58, 260.79,338.55, 262.89,338.51, 264.25,338.48, 266.28,338.15, 272.06,332.57, 280.03,331.72, 287.02,328.42, 289.25,327.37, 289.96,324.67, 291.88,323.68, 293.76,322.7, 299.19,322.67, 301.3,322.24, 296.24,331.56, 291.3,341.37, 287.56,351.05, 285.23,357.1, 285.01,364.16, 282.41,370.03, 276.62,383.07, 265.79,405.39, 263.53,419.53, 263.07,422.44, 259.75,441.79, 258.43,445.0, 254.05,455.72, 250.14,468.08, 248.53,479.57, 247.81,484.71, 248.19,521.18, 249.69,524.14, 254.7,534.05, 256.3,545.45, 261.69,555.13, 263.91,559.14, 272.74,563.2, 274.42,566.0, 283.31,580.77, 323.25,583.16, 337.13,576.95, 345.75,580.97, 451.54,528.0, 458.29,514.14, 470.18,510.97, 476.69,500.08, 485.43,492.08, 495.75,482.63, 508.91,477.6, 515.83,464.85, 534.38,454.06, 578.51,403.24, 594.29,384.13, 603.53,372.94, 607.73,357.29, 615.85,345.68, 632.25,322.21, 640.83,300.14, 654.68,274.88, 656.38,271.77, 659.46,269.28, 661.25,266.21, 662.44,264.16, 678.48,225.58, 678.5,224.95, 678.58,222.98, 680.85,223.66, 681.45,221.8, 685.4,209.39, 708.75,176.4, 706.31,164.89, 704.8,164.18, 703.68,165.09, 702.04,165.66, 703.36,162.99, 703.02,164.1, 703.43,162.49, 702.95,160.97, 703.43,161.88, 700.87,160.75, 698.0,163.44, 697.3,163.74, 698.23,167.23, 696.13,170.29, 661.94,234.81, 660.44,238.9, 660.28,239.32, 580.44,351.4, 572.15,363.32, 558.48,382.96, 542.05,398.57, 528.08,417.4, 527.93,417.61, 487.86,460.69, 487.48,461.01, 483.0,464.74, 477.55,467.59, 473.74,471.83, 470.6,475.34, 453.41,495.84, 451.04,497.38, 442.6,502.9, 403.87,531.08, 399.39,538.03, 398.69,539.13, 362.03,557.72, 358.21,559.49, 339.62,568.05, 324.51,565.99, 312.43,571.55, 306.51,568.1, 298.34,569.11, 291.98,566.42, 287.62,564.57, 284.95,561.06, 280.11,559.87, 277.98,553.75, 271.5,551.64, 269.56,545.83, 266.74,537.41, 268.39,539.23, 263.7,530.16, 261.46,525.82, 260.41,477.63, 261.54,472.41, 262.27,469.01, 265.32,466.11, 266.44,462.86, 269.23,454.76, 270.35,444.45, 270.57,436.47, 270.62,434.61, 276.56,416.42, 277.54,412.37, 280.11,401.77, 291.59,383.33, 290.44,372.85, 293.15,368.9, 295.62,364.09, 297.46,359.59, 298.15,357.9, 297.57,352.09, 298.79,350.79, 304.8,344.32, 312.06,329.07, 314.87,319.84, 330.65,312.42, 337.25,310.06, 353.42,313.46, 356.3,314.07, 360.3,312.44, 363.01,313.58, 366.94,315.22, 370.16,316.48, 374.89,316.51, 377.65,318.86, 399.28,332.34, 400.46,325.53, 400.95,322.76, 397.42,319.02, 396.49,316.46, 393.09,307.05, 348.09,306.3, 339.22,303.83, 335.15,302.7, 329.1,307.45, 324.72,307.61, 326.29,303.54, 325.51,304.83, 325.68,301.97, 325.93,297.6, 337.03,291.29, 335.28,282.32, 343.26,279.61, 348.33,267.79, 351.59,260.98, 355.75,252.27, 415.06,184.44, 425.41,174.09, 430.82,168.68, 432.7,160.89, 441.05,158.99, 442.78,156.43, 449.86,146.23, 451.99,144.52, 453.93,142.96, 484.66,120.97, 485.92,120.44, 488.45,119.38, 488.82,115.47, 491.02,114.57, 504.7,108.91, 531.96,85.0, 542.92,83.44, 543.59,82.71, 543.48,82.24, 543.55,81.28, 547.25,75.08, 567.15,72.14, 574.22,65.37, 582.52,65.98, 616.96,57.85, 625.45,54.86, 631.64,56.98, 644.18,54.26, 649.84,51.24, 658.01,55.36, 677.07,49.58, 682.94,51.57, 684.11,51.97, 690.9,54.6, 691.72,54.43, 692.75,54.23, 693.47,53.0, 694.49,52.61, 697.83,53.55, 697.94,53.69, 700.27,55.5, 709.51,55.5, 717.94,55.61, 727.33,56.52, 734.49,57.22, 740.9,60.5, 748.73,60.5, 751.66,62.92, 755.16,63.07, 758.16,64.71, 776.98,74.96, 795.94,84.02, 811.23,99.8, 814.35,103.03, 813.15,105.31, 818.0,107.7, 822.41,114.91, 841.27,142.48, 843.45,148.16, 850.43,166.28, 856.53,185.01, 862.84,203.62, 853.5,213.13, 807.49,237.48, 803.41,244.02, 802.6,245.31, 760.18,276.0, 756.94,277.62, 753.16,279.51, 676.57,355.39, 674.67,358.88, 670.51,366.53, 588.66,466.24, 583.47,470.03, 569.96,479.88, 534.52,476.08, 526.56,499.14, 525.21,503.03, 540.6,516.59, 544.23,521.12, 539.11,537.89, 520.5,554.75, 510.79,569.74, 507.38,575.02, 504.31,582.21, 501.06,586.43, 496.11,592.84, 489.46,597.99, 484.84,604.69, 476.32,617.05, 468.77,630.77, 458.93,641.57, 447.68,653.9, 437.48,663.22, 429.28,677.18, 427.98,679.39, 425.16,679.82, 423.87,681.66, 423.16,682.67, 423.47,684.98, 423.45,686.03, 420.07,687.9, 403.28,702.78, 400.77,706.77, 399.71,708.45, 398.7,712.42, 397.0,713.42, 391.02,716.95, 365.0,738.6, 362.23,744.07, 349.3,751.69, 340.47,758.57, 326.91,765.64, 323.52,767.41, 321.61,771.86, 318.02,773.42, 307.21,778.12, 294.18,781.97, 282.78,785.45, 258.76,792.78, 234.64,791.18, 210.37,785.46, 204.47,784.07, 200.22,777.89, 195.23,774.77, 175.2,762.25, 155.72,747.59, 141.68,729.1, 135.54,721.02, 130.98,709.43, 123.8,702.23, 122.64,701.06, 124.05,698.23, 123.25,696.79, 112.98,678.19, 117.12,638.89, 111.14,631.29Z
M1592.7,451.52 C1604.66,445.73, 1647.73,366.2, 1653.54,350.22, 1654.57,347.37, 1658.05,344.82, 1659.4,342.04, 1665.73,329.01, 1673.39,316.45, 1678.55,303.15, 1681.12,296.51, 1687.7,291.72, 1690.57,284.99, 1693.76,277.53, 1718.2,245.55, 1718.44,244.87, 1722.76,232.67, 1732.92,219.77, 1746.35,214.27, 1747.71,217.29, 1748.5,218.31, 1748.5,221.51, 1748.5,222.77, 1748.76,222.34, 1747.13,222.14, 1754.37,237.89, 1742.0,271.77, 1733.74,286.8, 1732.47,289.1, 1733.63,292.66, 1732.3,295.15, 1726.18,306.6, 1716.53,319.45, 1716.49,333.0, 1712.12,337.39, 1709.76,341.71, 1707.39,347.05, 1693.63,378.11, 1677.16,393.02, 1661.31,421.14, 1657.01,428.77, 1642.89,436.28, 1637.83,443.7, 1628.26,457.74, 1549.79,545.49, 1537.57,545.4, 1544.95,525.07, 1591.7,462.35, 1592.7,451.52Z
M628.2,473.28 C631.2,465.16, 638.42,461.01, 644.24,454.22, 648.48,449.29, 658.92,430.61, 662.69,423.86, 668.17,414.04, 682.32,401.68, 687.37,391.07, 688.02,389.71, 686.84,387.58, 687.55,386.3, 689.83,382.15, 693.9,380.03, 696.26,376.19, 700.26,369.71, 703.15,362.63, 707.71,356.86, 709.86,354.15, 713.59,351.67, 716.18,349.24, 718.33,347.23, 744.33,311.68, 745.1,309.02, 747.46,308.03, 748.57,307.59, 751.01,306.98, 754.23,302.02, 772.6,283.18, 776.97,280.6, 782.11,277.57, 788.71,274.77, 793.42,271.06, 804.98,261.97, 803.38,260.15, 818.23,251.23, 821.07,249.52, 821.69,245.0, 824.99,243.58, 835.75,238.94, 856.41,218.65, 865.37,217.0, 873.84,224.79, 869.38,243.42, 872.95,253.86, 863.58,269.27, 869.18,284.13, 864.45,298.81, 859.27,314.86, 846.47,344.98, 838.3,360.15, 826.07,382.87, 799.9,416.2, 777.79,429.75, 771.28,433.75, 768.04,443.39, 761.15,447.3, 749.4,453.98, 739.11,461.6, 726.23,465.55, 719.63,467.57, 714.49,473.83, 707.88,476.5, 705.52,477.45, 701.97,476.99, 699.41,477.54, 686.66,480.29, 672.75,488.63, 663.6,490.5, 658.67,491.51, 632.08,477.9, 628.2,473.28Z
M622.0,319.43 C614.62,319.92, 613.95,309.51, 621.91,308.72, 625.49,308.36, 624.77,316.97, 622.0,319.43Z
M2224.5,436.0 C2224.5,434.23, 2227.85,434.74, 2229.61,434.53, 2240.58,433.18, 2256.86,419.03, 2256.5,404.21, 2256.2,391.89, 2230.77,385.05, 2227.01,386.57, 2214.35,391.69, 2195.0,416.61, 2211.84,433.34, 2212.28,433.78, 2224.5,438.61, 2224.5,436.0Z
M545.53,501.76 C548.35,492.52, 561.44,486.12, 567.23,491.86, 568.68,493.29, 564.68,495.06, 563.7,496.84, 562.19,499.61, 558.36,506.06, 554.2,504.43, 550.75,503.09, 548.79,502.85, 545.53,501.76Z
M609.83,501.33 C616.77,490.73, 632.57,490.18, 642.01,496.64, 636.17,500.05, 615.78,505.15, 609.83,501.33Z
M2353.53,552.35 C2370.52,553.43, 2363.83,568.82, 2364.55,579.81, 2360.98,588.12, 2353.12,592.28, 2347.87,599.66, 2346.36,601.78, 2345.15,606.96, 2343.05,608.37, 2328.91,617.91, 2320.15,641.07, 2318.52,657.67, 2318.27,660.25, 2319.93,662.09, 2319.46,664.54, 2318.63,668.91, 2310.95,679.04, 2320.79,679.49, 2323.0,679.59, 2324.56,677.67, 2326.47,677.78, 2340.46,688.0, 2332.22,694.81, 2325.79,704.74, 2323.97,707.56, 2323.84,711.11, 2322.39,714.04, 2320.1,718.7, 2309.79,722.07, 2312.4,727.58, 2299.56,731.38, 2258.25,785.33, 2237.86,792.44, 2234.6,793.58, 2230.68,793.68, 2227.32,794.55, 2223.33,795.57, 2218.81,797.91, 2214.2,796.45, 2201.7,792.47, 2195.72,773.93, 2200.43,763.68, 2200.34,762.77, 2199.88,762.45, 2199.57,761.6, 2200.01,759.04, 2202.65,758.08, 2203.44,755.89, 2204.05,754.19, 2203.07,752.03, 2203.55,750.29, 2205.31,743.82, 2213.3,725.26, 2216.94,720.58, 2218.39,718.71, 2221.6,717.07, 2222.45,714.84, 2228.97,697.82, 2240.89,682.63, 2250.83,667.7, 2252.46,665.26, 2276.58,638.67, 2279.41,634.01, 2297.02,605.0, 2327.6,573.05, 2353.53,552.35Z
M1197.36,794.66 C1183.84,793.22, 1175.14,790.91, 1167.35,779.93, 1153.2,759.97, 1173.42,737.93, 1181.56,719.06, 1183.8,713.87, 1190.48,710.37, 1192.44,704.88, 1194.08,700.31, 1195.12,694.88, 1197.82,690.71, 1199.22,688.56, 1201.04,686.48, 1203.14,685.31, 1216.51,677.84, 1222.11,659.94, 1232.16,649.35, 1235.31,646.02, 1238.29,644.31, 1238.65,639.59, 1264.55,626.17, 1309.62,549.91, 1341.02,563.58, 1344.64,565.16, 1346.77,573.69, 1348.33,576.88, 1353.31,587.04, 1344.62,602.13, 1345.55,612.38, 1341.87,619.42, 1339.22,627.58, 1334.24,633.64, 1327.6,633.23, 1322.2,630.89, 1315.28,632.19, 1300.27,635.0, 1283.02,665.38, 1288.56,679.94, 1289.8,683.19, 1296.12,711.48, 1295.38,713.06, 1290.25,723.98, 1230.32,782.56, 1218.84,786.44, 1214.88,787.78, 1200.1,792.85, 1197.36,794.66Z
M804.54,682.24 C811.77,660.11, 830.05,651.66, 842.09,635.39, 842.93,634.25, 842.06,632.8, 842.88,631.65, 848.22,624.13, 881.55,592.26, 889.08,588.36, 895.91,584.83, 912.88,557.65, 936.57,562.54, 944.55,564.18, 943.75,572.62, 946.9,578.33, 936.52,590.41, 932.57,605.46, 923.05,617.44, 916.66,625.48, 908.1,635.0, 898.94,639.62, 892.53,642.85, 888.81,651.17, 883.35,655.12, 863.92,669.21, 827.98,684.44, 804.54,682.24Z
M905.21,763.5 C908.69,757.28, 915.99,753.17, 919.92,746.83, 925.1,745.79, 928.68,741.43, 930.57,737.0, 932.08,733.46, 954.09,719.26, 958.2,715.22, 965.69,707.86, 971.89,698.74, 981.01,693.56, 981.25,692.73, 1010.86,658.95, 1014.41,653.03, 1014.72,652.51, 1012.87,648.58, 1012.86,648.53, 1025.65,648.42, 1025.33,638.29, 1030.92,637.29, 1035.45,629.5, 1066.62,592.72, 1073.74,590.86, 1074.58,591.93, 1076.9,594.68, 1077.44,596.07, 1078.15,597.92, 1077.95,636.47, 1077.43,637.96, 1074.58,646.1, 1070.5,653.35, 1070.5,662.64, 1065.71,668.58, 1062.63,678.4, 1062.45,686.04, 1055.1,693.41, 1051.48,702.32, 1048.45,711.8, 1047.06,716.13, 1040.78,720.0, 1037.95,723.56, 1036.36,725.58, 1036.97,728.88, 1035.97,730.45, 1032.55,735.82, 1025.34,740.26, 1022.63,745.92, 1012.83,766.44, 992.01,775.8, 974.76,786.78, 964.95,793.03, 950.71,800.44, 938.82,796.55, 936.87,795.92, 934.44,796.88, 932.43,796.46, 917.3,793.34, 909.4,776.79, 905.21,763.5Z
"/></svg>