<?xml version="1.0" encoding="utf-8" ?>
<svg xmlns="http://www.w3.org/2000/svg" xmlns:ev="http://www.w3.org/2001/xml-events" xmlns:xlink="http://www.w3.org/1999/xlink" baseProfile="tiny" height="510" version="1.2" width="1504">
<defs/>
<path d="
M1269.08,415.16 C1276.74,391.65, 1316.34,352.32, 1319.48,343.66, 1322.71,334.75, 1379.94,271.72, 1383.54,289.56, 1385.63,299.95, 1362.26,328.24, 1354.32,336.18, 1300.79,389.71, 1326.81,452.93, 1389.94,372.57, 1397.13,363.42, 1408.87,351.35, 1409.71,339.38, 1405.24,341.52, 1356.22,418.21, 1334.71,404.17, 1319.85,394.49, 1371.08,353.08, 1379.4,336.04, 1384.63,325.34, 1395.06,298.41, 1390.44,286.09, 1389.1,282.52, 1384.77,280.81, 1381.71,279.0, 1363.81,282.88, 1336.45,309.58, 1327.27,325.18, 1324.61,329.71, 1317.3,332.51, 1315.51,337.44, 1314.54,340.1, 1309.84,347.93, 1306.64,346.07, 1304.46,332.15, 1332.8,283.59, 1294.77,284.5, 1280.09,284.85, 1256.38,318.17, 1250.38,330.06, 1247.56,335.65, 1215.92,364.25, 1213.57,353.75, 1212.64,349.62, 1221.05,340.79, 1222.44,336.88, 1224.18,331.99, 1223.61,326.74, 1226.25,322.21, 1227.98,319.24, 1227.22,315.7, 1228.86,312.66, 1221.3,303.48, 1233.78,287.76, 1219.97,281.56, 1185.76,266.2, 1155.05,313.8, 1142.33,337.12, 1136.28,348.19, 1075.98,415.17, 1063.09,402.59, 1057.57,397.2, 1053.91,389.38, 1056.55,381.19, 1067.07,348.6, 1105.71,315.1, 1119.88,282.45, 1113.44,278.37, 1105.79,278.51, 1099.66,282.87, 1087.25,291.69, 997.67,438.63, 983.45,392.22, 974.48,362.94, 999.59,335.77, 1015.19,312.28, 1023.72,299.42, 1044.41,276.95, 1050.38,265.06, 1052.94,259.96, 1068.67,235.5, 1071.99,231.52, 1073.46,229.76, 1077.87,228.33, 1079.82,227.48, 1083.48,227.77, 1087.07,228.5, 1091.11,228.5, 1099.35,219.15, 1105.97,228.99, 1110.32,215.17, 1104.37,213.91, 1080.42,219.84, 1087.78,207.76, 1097.74,191.41, 1107.26,176.25, 1115.71,158.86, 1077.2,140.98, 1077.39,233.16, 1037.44,217.33, 1031.75,218.65, 1030.11,215.48, 1024.98,218.12, 1038.09,234.15, 1054.25,216.9, 1047.49,235.57, 1047.46,235.66, 1004.62,302.11, 1000.24,309.22, 989.75,326.25, 973.8,340.21, 961.91,355.59, 959.15,359.17, 959.87,359.49, 958.24,362.22, 957.86,362.85, 915.4,397.1, 910.2,402.3, 907.58,404.92, 905.18,406.5, 901.42,406.5, 853.84,406.5, 957.14,300.08, 957.5,288.97, 957.56,287.03, 957.48,285.07, 957.42,283.13, 954.08,282.26, 948.56,280.01, 944.95,281.61, 929.58,288.4, 918.2,310.11, 910.31,324.14, 908.01,328.23, 903.42,330.81, 900.82,334.72, 893.11,346.29, 839.97,411.86, 827.27,399.77, 824.21,396.85, 821.0,396.26, 818.75,392.21, 808.32,373.43, 880.19,303.53, 880.58,286.96, 876.09,285.59, 870.15,283.2, 865.75,285.79, 843.2,299.02, 800.38,386.88, 757.26,402.53, 754.93,403.38, 753.19,405.84, 750.66,406.46, 738.28,409.47, 735.45,395.14, 737.54,386.36, 740.25,375.04, 784.32,316.97, 793.6,297.96, 795.37,294.33, 810.73,287.58, 814.69,283.8, 823.63,275.29, 868.08,228.69, 873.16,221.31, 884.64,204.65, 934.4,125.73, 911.5,109.67, 894.42,113.91, 859.54,172.68, 850.27,189.18, 845.51,197.66, 837.6,204.4, 832.71,212.83, 810.54,251.1, 778.8,285.84, 755.3,327.15, 749.82,336.79, 714.43,365.06, 700.63,363.48, 689.31,362.17, 716.5,318.79, 716.5,307.88, 716.51,246.08, 631.46,315.75, 619.44,343.93, 618.3,346.62, 614.54,348.45, 613.54,351.22, 609.05,363.56, 604.9,374.62, 593.37,383.11, 580.37,392.68, 552.23,406.48, 536.58,408.52, 529.44,409.46, 533.47,408.17, 537.82,405.72, 541.03,403.91, 545.44,403.1, 548.32,401.15, 609.43,359.92, 575.39,313.52, 583.56,292.06, 586.22,285.1, 611.17,251.54, 617.66,244.84, 621.79,240.57, 624.18,228.22, 627.73,226.07, 593.94,210.79, 583.7,260.16, 574.69,277.85, 572.3,282.56, 574.34,289.02, 572.44,293.95, 570.14,299.9, 535.26,341.07, 530.1,343.35, 526.4,344.98, 511.0,339.85, 492.48,356.03, 478.71,368.05, 482.44,385.66, 481.37,388.08, 478.11,395.41, 434.38,423.17, 419.25,395.79, 414.35,386.92, 428.59,361.56, 436.79,356.76, 438.73,355.62, 463.37,351.18, 468.81,349.45, 484.26,344.5, 543.79,285.5, 497.05,285.5, 473.41,285.5, 430.18,326.57, 420.41,347.02, 418.84,350.32, 414.31,353.16, 412.39,357.04, 410.63,360.62, 404.17,364.23, 401.34,367.16, 386.33,382.67, 352.31,418.32, 327.73,402.2, 323.73,399.57, 324.08,395.03, 324.48,391.35, 328.93,349.79, 409.58,316.61, 374.57,260.82, 374.58,259.65, 376.14,258.93, 377.24,258.53, 395.67,251.91, 413.37,246.62, 429.65,234.88, 448.1,221.56, 466.73,205.56, 472.54,182.34, 474.22,175.66, 479.94,167.17, 480.48,160.33, 480.87,155.38, 476.45,115.15, 477.03,114.48, 487.04,102.94, 516.74,101.15, 525.31,94.43, 512.71,87.44, 487.79,102.44, 476.02,107.42, 475.54,107.62, 474.12,107.6, 473.74,107.16, 471.0,104.02, 469.91,96.02, 468.44,92.08, 451.26,45.96, 416.73,31.87, 369.91,30.5, 296.04,28.33, 226.86,101.83, 192.3,163.15, 190.33,166.65, 185.09,166.18, 181.93,167.63, 168.5,173.76, 155.86,180.43, 144.51,190.0, 114.76,215.08, 89.54,271.28, 86.52,308.71, 85.57,320.48, 86.43,352.11, 91.71,362.17, 108.66,394.4, 145.47,421.95, 182.04,407.56, 188.26,405.12, 195.91,405.33, 201.21,402.25, 242.33,378.41, 289.86,335.92, 315.77,294.77, 318.68,290.15, 324.64,285.61, 326.5,280.51, 331.73,266.11, 363.47,261.82, 367.11,263.67, 371.92,266.1, 377.4,277.86, 375.44,282.95, 359.86,323.23, 322.99,334.54, 317.44,388.94, 316.8,395.2, 316.89,400.08, 322.45,405.1, 354.36,433.94, 400.29,371.79, 406.74,371.52, 409.9,371.38, 408.66,388.23, 409.56,390.86, 412.69,400.0, 417.89,409.85, 428.14,413.44, 446.5,419.87, 462.37,406.35, 477.96,399.44, 479.73,398.66, 482.15,394.02, 484.14,396.67, 488.28,402.17, 490.21,408.88, 497.5,411.99, 506.55,415.85, 531.95,417.34, 541.76,414.45, 550.8,411.79, 590.34,392.9, 596.77,386.73, 598.55,385.02, 601.94,379.93, 604.63,380.54, 607.97,381.31, 612.8,416.35, 635.4,413.47, 658.43,410.54, 683.08,371.82, 690.11,369.57, 692.2,368.9, 712.72,377.78, 737.76,352.74, 744.28,346.22, 738.77,361.53, 736.65,363.85, 735.24,365.39, 735.48,369.59, 734.39,372.05, 727.67,387.28, 725.4,406.24, 745.59,410.54, 761.17,413.86, 786.56,389.94, 797.36,379.14, 799.15,377.35, 819.28,351.81, 814.44,365.86, 812.03,372.88, 808.08,396.12, 816.97,400.41, 821.27,402.48, 825.59,404.93, 829.64,407.7, 852.62,406.26, 877.01,366.78, 885.04,363.56, 890.06,361.55, 880.53,391.72, 882.19,397.8, 884.56,406.54, 897.1,417.06, 907.07,412.38, 919.18,406.68, 967.37,360.42, 973.67,348.88, 975.59,345.37, 978.5,346.44, 978.5,349.99, 978.5,355.14, 977.01,359.52, 975.55,364.21, 973.22,371.76, 976.74,381.71, 975.21,389.1, 979.73,395.09, 982.1,399.56, 987.43,405.41, 991.3,403.55, 994.42,406.13, 998.05,406.82, 1032.91,388.1, 1037.44,365.45, 1055.65,349.95, 1058.92,349.52, 1054.37,361.39, 1053.2,363.27, 1049.14,369.8, 1048.5,391.26, 1052.29,397.84, 1071.1,430.45, 1111.29,379.21, 1125.8,364.7, 1126.4,364.1, 1129.18,361.17, 1130.19,361.84, 1135.5,365.39, 1118.27,405.25, 1143.73,412.55, 1148.67,413.96, 1154.9,413.17, 1160.12,410.33, 1165.83,407.22, 1198.88,376.89, 1201.33,372.12, 1203.16,368.54, 1204.94,364.77, 1207.7,361.53, 1213.92,361.46, 1218.18,362.95, 1224.64,361.48, 1241.91,352.26, 1258.48,325.07, 1261.93,322.64, 1264.53,320.82, 1269.26,316.29, 1271.21,313.25, 1278.1,302.53, 1288.19,285.2, 1303.81,291.55, 1321.93,298.91, 1272.06,364.08, 1271.51,371.9, 1270.81,381.8, 1237.39,408.84, 1234.85,419.65, 1238.22,421.1, 1241.02,422.4, 1244.88,422.55, 1253.59,414.15, 1260.64,418.36, 1269.08,415.16Z
M187.15,171.02 C174.04,198.1, 146.0,265.5, 171.57,291.07, 174.63,294.13, 180.05,298.91, 184.37,299.43, 204.34,301.83, 219.53,293.49, 236.89,286.45, 244.65,283.3, 251.88,276.71, 258.66,271.87, 301.34,241.34, 337.86,203.86, 359.57,156.0, 364.3,145.56, 391.6,98.2, 388.45,91.15, 388.18,90.56, 387.77,90.39, 387.15,90.57, 386.94,90.63, 368.84,126.09, 366.23,130.23, 360.95,138.62, 337.86,166.66, 335.56,172.07, 323.35,200.76, 261.53,260.32, 236.09,279.33, 231.65,282.65, 225.18,284.8, 220.14,286.56, 204.04,292.17, 190.73,302.69, 175.64,287.14, 151.62,262.39, 183.56,194.75, 195.36,168.67, 200.6,168.22, 204.65,165.35, 209.89,165.5, 217.35,165.71, 232.04,173.84, 236.03,173.39, 243.8,161.39, 203.55,162.56, 197.27,164.29, 201.29,158.77, 216.37,136.03, 219.7,129.84, 221.59,126.35, 259.08,84.95, 262.85,81.72, 276.68,69.88, 296.85,56.72, 312.82,47.73, 316.54,45.63, 319.76,45.37, 323.53,42.56, 332.14,43.8, 350.78,35.72, 361.48,35.57, 392.27,35.13, 434.69,39.56, 450.6,72.04, 452.02,74.93, 455.36,77.19, 456.46,80.23, 460.29,90.75, 464.19,101.14, 468.3,111.74, 467.41,112.81, 418.49,146.7, 414.88,148.67, 397.57,158.12, 347.08,225.82, 331.71,241.79, 326.31,247.4, 297.76,250.66, 300.54,261.67, 301.12,263.95, 307.16,268.65, 308.99,270.56, 297.48,290.6, 281.52,307.61, 269.4,327.02, 266.44,331.77, 259.6,335.16, 256.75,339.79, 236.92,371.99, 187.99,412.72, 148.42,404.46, 134.88,401.63, 101.74,374.03, 98.54,360.64, 85.47,305.8, 94.88,265.58, 127.13,219.35, 141.25,199.1, 143.23,195.07, 165.17,182.28, 172.12,178.23, 178.87,172.22, 187.15,171.02Z
M804.85,284.38 C818.3,254.14, 840.37,229.45, 856.31,201.15, 866.43,183.17, 891.68,124.85, 909.97,116.95, 916.31,125.97, 908.01,139.64, 905.55,148.27, 890.37,201.62, 845.9,246.89, 804.85,284.38Z
M368.76,255.45 C362.77,252.54, 356.05,251.34, 351.02,246.65, 353.28,241.73, 406.08,166.87, 409.84,163.73, 426.1,150.2, 451.4,126.66, 470.17,117.67, 471.49,129.73, 472.37,135.94, 469.54,147.34, 469.02,149.47, 470.6,152.56, 470.18,154.2, 461.04,190.24, 428.74,235.28, 391.83,247.44, 384.04,250.01, 375.85,250.81, 368.76,255.45Z
M1148.42,228.0 C1153.58,224.55, 1159.85,224.02, 1164.07,218.41, 1174.26,204.87, 1141.68,196.32, 1140.5,213.96, 1140.24,217.82, 1137.66,227.3, 1145.16,227.5, 1146.0,227.52, 1148.02,228.34, 1148.42,228.0Z
M1216.72,286.06 C1221.06,290.97, 1219.27,296.27, 1217.62,302.34, 1199.46,327.88, 1203.56,313.21, 1194.0,348.07, 1199.48,350.48, 1200.17,347.12, 1203.46,353.46, 1207.49,361.21, 1134.44,441.81, 1136.51,390.83, 1136.93,380.42, 1158.46,347.04, 1166.4,339.1, 1175.69,329.81, 1204.5,284.26, 1216.72,286.06Z
M438.97,351.51 C443.01,336.7, 505.77,272.25, 509.47,295.53, 509.57,296.16, 510.29,298.82, 510.18,299.2, 509.69,301.0, 507.19,302.42, 506.54,304.23, 498.07,327.52, 464.03,351.44, 438.97,351.51Z
M703.73,326.59 C700.51,326.47, 697.75,324.96, 694.5,325.53, 677.92,328.44, 682.72,354.1, 681.78,355.9, 683.13,358.66, 684.22,361.4, 685.05,364.32, 677.6,378.61, 639.27,418.66, 623.14,402.64, 620.85,400.37, 617.52,397.92, 617.5,394.06, 617.4,372.64, 660.32,325.9, 676.24,309.27, 677.69,307.75, 680.48,307.84, 681.38,306.06, 693.5,282.1, 727.82,286.66, 703.73,326.59Z
M489.34,391.17 C503.51,376.93, 538.36,351.75, 544.38,334.02, 546.97,335.2, 567.75,308.88, 573.93,305.24, 589.3,337.08, 532.63,426.59, 495.77,404.23, 492.31,402.13, 491.12,394.51, 489.34,391.17Z
"/></svg>